<svg width="25" height="24" viewBox="0 0 25 24" fill="none" xmlns="http://www.w3.org/2000/svg">
<path d="M17.4198 6.75017C17.3495 6.81989 17.2938 6.90284 17.2557 6.99424C17.2176 7.08563 17.198 7.18366 17.198 7.28267C17.198 7.38168 17.2176 7.47971 17.2557 7.5711C17.2938 7.6625 17.3495 7.74545 17.4198 7.81517L20.8698 11.2652H3.21484C3.01593 11.2652 2.82517 11.3442 2.68451 11.4848C2.54386 11.6255 2.46484 11.8163 2.46484 12.0152C2.46484 12.2141 2.54386 12.4048 2.68451 12.5455C2.82517 12.6862 3.01593 12.7652 3.21484 12.7652H20.8548L17.4198 16.1927C17.2802 16.3332 17.2017 16.5233 17.2017 16.7214C17.2017 16.9196 17.2802 17.1096 17.4198 17.2502C17.5604 17.3899 17.7505 17.4683 17.9486 17.4683C18.1467 17.4683 18.3368 17.3899 18.4773 17.2502L23.2473 12.4802C23.3115 12.4186 23.3626 12.3446 23.3975 12.2628C23.4324 12.1809 23.4504 12.0929 23.4504 12.0039C23.4504 11.9149 23.4324 11.8269 23.3975 11.7451C23.3626 11.6632 23.3115 11.5893 23.2473 11.5277L18.4848 6.75017C18.4151 6.67987 18.3322 6.62408 18.2408 6.586C18.1494 6.54792 18.0514 6.52832 17.9523 6.52832C17.8533 6.52832 17.7553 6.54792 17.6639 6.586C17.5725 6.62408 17.4896 6.67987 17.4198 6.75017Z" fill="#4D3333"/>
</svg>
