<svg width="26" height="21" viewBox="0 0 26 21" fill="none" xmlns="http://www.w3.org/2000/svg">
<path d="M6.50001 19.0485C5.60254 19.0485 4.87501 18.3668 4.87501 17.5259C4.87501 16.685 5.60254 16.0033 6.50001 16.0033C7.39747 16.0033 8.12501 16.685 8.12501 17.5259C8.12501 18.3668 7.39747 19.0485 6.50001 19.0485ZM6.50001 20.5711C8.29493 20.5711 9.75001 19.2077 9.75001 17.5259C9.75001 15.8441 8.29493 14.4807 6.50001 14.4807C4.70508 14.4807 3.25001 15.8441 3.25001 17.5259C3.25001 19.2077 4.70508 20.5711 6.50001 20.5711Z" fill="white"/>
<path d="M19.5 19.0485C18.6025 19.0485 17.875 18.3668 17.875 17.5259C17.875 16.685 18.6025 16.0033 19.5 16.0033C20.3975 16.0033 21.125 16.685 21.125 17.5259C21.125 18.3668 20.3975 19.0485 19.5 19.0485ZM19.5 20.5711C21.2949 20.5711 22.75 19.2077 22.75 17.5259C22.75 15.8441 21.2949 14.4807 19.5 14.4807C17.7051 14.4807 16.25 15.8441 16.25 17.5259C16.25 19.2077 17.7051 20.5711 19.5 20.5711Z" fill="white"/>
<path d="M0.187281 1.05245C0.341643 0.878175 0.570801 0.777344 0.812507 0.777344H25.1875C25.4292 0.777344 25.6584 0.878175 25.8127 1.05245C25.9671 1.22672 26.0306 1.45634 25.9861 1.67894L23.5486 13.8597C23.4765 14.2198 23.141 14.4807 22.75 14.4807H3.25001C2.85902 14.4807 2.52348 14.2198 2.45142 13.8597L0.0139231 1.67894C-0.0306206 1.45634 0.0329183 1.22672 0.187281 1.05245ZM1.79151 2.29994L3.92432 12.9581H22.0757L24.2085 2.29994H1.79151Z" fill="white"/>
</svg>
