<svg width="162" height="162" viewBox="0 0 162 162" fill="none" xmlns="http://www.w3.org/2000/svg">
<g filter="url(#filter0_d_300_655)">
<circle cx="81" cy="80" r="67" fill="white"/>
</g>
<path d="M74.6948 136.858C74.7158 137.294 74.9002 137.645 75.248 137.91C75.5958 138.174 76.0346 138.325 76.5644 138.362C76.9517 138.389 77.2951 138.351 77.5943 138.246C77.8908 138.14 78.1278 137.984 78.3055 137.776C78.4803 137.568 78.5775 137.324 78.597 137.045C78.6133 136.811 78.5719 136.607 78.4725 136.431C78.3701 136.258 78.2346 136.109 78.0657 135.986C77.8967 135.865 77.7179 135.763 77.5292 135.678C77.3403 135.596 77.1661 135.528 77.0068 135.474L76.1349 135.173C75.9112 135.097 75.6635 134.997 75.3918 134.872C75.1172 134.747 74.8581 134.584 74.6145 134.384C74.3678 134.186 74.1704 133.941 74.022 133.647C73.8737 133.353 73.8139 133.001 73.8426 132.591C73.8756 132.118 74.0294 131.7 74.3039 131.335C74.5755 130.971 74.9556 130.693 75.4441 130.501C75.9298 130.308 76.5087 130.236 77.1809 130.283C77.8075 130.327 78.343 130.466 78.7874 130.7C79.229 130.934 79.5681 131.241 79.8048 131.621C80.0387 132.001 80.156 132.431 80.1568 132.912L79.0631 132.836C79.0577 132.503 78.9657 132.222 78.7872 131.992C78.6056 131.765 78.369 131.588 78.0773 131.462C77.7825 131.338 77.4614 131.264 77.114 131.24C76.7095 131.212 76.3418 131.252 76.0108 131.36C75.6796 131.472 75.4117 131.639 75.2072 131.862C75.0025 132.088 74.889 132.361 74.8667 132.68C74.8464 132.97 74.911 133.212 75.0606 133.406C75.2102 133.6 75.4135 133.763 75.6704 133.895C75.9273 134.028 76.2066 134.147 76.5082 134.254L77.5633 134.637C78.2331 134.881 78.7547 135.2 79.1279 135.592C79.5012 135.985 79.6672 136.476 79.6259 137.065C79.5917 137.555 79.4294 137.973 79.139 138.319C78.8456 138.668 78.4668 138.928 78.0026 139.098C77.5354 139.272 77.0227 139.339 76.4645 139.3C75.9006 139.26 75.4064 139.124 74.9819 138.891C74.5572 138.661 74.2288 138.364 73.9968 137.998C73.7619 137.633 73.6528 137.229 73.6694 136.786L74.6948 136.858Z" fill="black"/>
<path d="M70.2588 129.292C70.862 129.42 71.3512 129.673 71.7263 130.051C72.1014 130.428 72.3532 130.892 72.4815 131.441C72.6098 131.991 72.6057 132.587 72.4692 133.229C72.3303 133.883 72.0876 134.434 71.7412 134.883C71.3914 135.334 70.97 135.655 70.4772 135.845C69.981 136.037 69.4425 136.071 68.8616 135.948C68.4092 135.852 68.0192 135.681 67.6918 135.436C67.3643 135.192 67.1168 134.894 66.9491 134.543C66.7814 134.192 66.7124 133.81 66.742 133.396L67.7306 133.606C67.7437 133.915 67.8561 134.21 68.0677 134.492C68.276 134.775 68.5979 134.964 69.0336 135.056C69.419 135.138 69.7783 135.109 70.1115 134.97C70.4413 134.833 70.7257 134.6 70.9649 134.271C71.2006 133.945 71.3702 133.539 71.4734 133.053C71.5791 132.556 71.5929 132.106 71.5149 131.704C71.4341 131.302 71.2715 130.968 71.0272 130.703C70.7801 130.438 70.461 130.263 70.07 130.18C69.8131 130.125 69.5704 130.121 69.342 130.165C69.1135 130.21 68.9089 130.301 68.728 130.438C68.5472 130.574 68.4011 130.754 68.2898 130.975L67.3012 130.765C67.4378 130.397 67.6487 130.084 67.9341 129.827C68.216 129.571 68.5561 129.393 68.9544 129.291C69.3492 129.191 69.784 129.191 70.2588 129.292Z" fill="black"/>
<path d="M64.6458 127.883L62.396 134.065L61.4784 133.731L61.8182 132.797L61.7538 132.774C61.5298 133.039 61.2356 133.213 60.8711 133.296C60.5067 133.379 60.1393 133.353 59.7691 133.218C59.6993 133.193 59.6126 133.16 59.509 133.119C59.4053 133.078 59.3276 133.045 59.2759 133.02L59.6275 132.055C59.6567 132.074 59.7261 132.113 59.8356 132.171C59.9415 132.231 60.0575 132.284 60.1836 132.33C60.484 132.439 60.7753 132.474 61.0573 132.434C61.3356 132.395 61.5832 132.291 61.8001 132.121C62.0134 131.952 62.1708 131.728 62.2723 131.449L63.6961 127.538L64.6458 127.883Z" fill="black"/>
<path d="M57.0416 124.406C57.566 124.685 57.9597 125.054 58.2228 125.514C58.4833 125.973 58.6052 126.485 58.5885 127.052C58.5692 127.617 58.4001 128.2 58.0811 128.8C57.7594 129.405 57.3689 129.875 56.9096 130.209C56.4479 130.543 55.954 130.73 55.428 130.77C54.8996 130.809 54.3731 130.689 53.8488 130.411C53.3244 130.132 52.932 129.763 52.6714 129.304C52.4083 128.844 52.2871 128.33 52.3077 127.763C52.3258 127.193 52.4957 126.606 52.8174 126.001C53.1364 125.401 53.5261 124.936 53.9865 124.605C54.4445 124.273 54.9377 124.087 55.4661 124.048C55.9921 124.008 56.5173 124.127 57.0416 124.406ZM56.6154 125.207C56.2171 124.996 55.835 124.923 55.4693 124.991C55.1036 125.058 54.7706 125.226 54.4701 125.493C54.1696 125.76 53.9162 126.087 53.7098 126.476C53.5034 126.864 53.3728 127.259 53.318 127.659C53.2633 128.06 53.3095 128.433 53.4567 128.776C53.604 129.119 53.8767 129.397 54.275 129.609C54.6733 129.821 55.056 129.892 55.4231 129.822C55.7901 129.752 56.1245 129.582 56.4263 129.312C56.7281 129.043 56.9822 128.714 57.1886 128.325C57.3951 127.937 57.525 127.544 57.5784 127.145C57.6318 126.747 57.5842 126.377 57.4357 126.036C57.2871 125.696 57.0137 125.419 56.6154 125.207Z" fill="black"/>
<path d="M45.4509 127.553L50.6063 120.458L51.424 121.052L46.2686 128.147L45.4509 127.553Z" fill="black"/>
<path d="M39.1769 122.147L45.2697 115.837L45.9968 116.539L39.904 122.849L39.1769 122.147Z" fill="black"/>
<path d="M32.543 105.742L33.359 105.271L35.2776 108.594L34.4616 109.065L32.543 105.742Z" fill="black"/>
<path d="M24.9568 91.6011C24.5482 91.756 24.2717 92.0397 24.1274 92.4523C23.9831 92.8649 23.9752 93.3289 24.1037 93.8442C24.1976 94.2209 24.3408 94.5354 24.5331 94.7876C24.7248 95.037 24.9469 95.214 25.1996 95.3188C25.4516 95.4207 25.7134 95.4379 25.9848 95.3702C26.212 95.3135 26.3939 95.2108 26.5304 95.062C26.6634 94.9111 26.7625 94.7364 26.8278 94.5377C26.8902 94.3396 26.9326 94.1378 26.9549 93.9322C26.9744 93.7272 26.9852 93.5406 26.9874 93.3723L27.0046 92.45C27.0075 92.2139 27.0264 91.9473 27.0612 91.6502C27.0953 91.3504 27.17 91.0537 27.2851 90.7602C27.3968 90.4646 27.5694 90.2009 27.8029 89.969C28.0364 89.7372 28.3526 89.5716 28.7515 89.4721C29.2114 89.3574 29.657 89.3743 30.0883 89.5228C30.5189 89.6685 30.901 89.944 31.2345 90.3493C31.5673 90.7518 31.8152 91.28 31.9782 91.9338C32.1302 92.5432 32.1634 93.0955 32.078 93.5906C31.9918 94.0829 31.8045 94.5003 31.5163 94.8429C31.2273 95.1827 30.8542 95.4273 30.3971 95.5765L30.1319 94.5127C30.4463 94.4049 30.6853 94.2306 30.8489 93.9897C31.009 93.7467 31.1041 93.467 31.1341 93.1506C31.1606 92.8321 31.1317 92.5038 31.0474 92.1659C30.9493 91.7725 30.7976 91.4351 30.5921 91.1539C30.3838 90.8733 30.1419 90.6702 29.8664 90.5447C29.5881 90.4199 29.2938 90.3962 28.9836 90.4735C28.701 90.544 28.4907 90.6803 28.3528 90.8824C28.2149 91.0845 28.1226 91.3282 28.0761 91.6135C28.0295 91.8987 28.0019 92.2013 27.9934 92.5212L27.9553 93.643C27.9299 94.3555 27.7883 94.9499 27.5304 95.4262C27.2725 95.9024 26.8568 96.2121 26.2834 96.355C25.8069 96.4738 25.3592 96.4486 24.9404 96.2794C24.5181 96.1081 24.154 95.8281 23.8482 95.4394C23.5389 95.0487 23.3166 94.5818 23.1812 94.0389C23.0444 93.4903 23.0212 92.9782 23.1115 92.5026C23.1991 92.0276 23.3808 91.6233 23.6566 91.2897C23.9317 90.9533 24.2822 90.7247 24.7082 90.6038L24.9568 91.6011Z" fill="black"/>
<path d="M30.7805 85.0446C30.845 85.6579 30.7557 86.2012 30.5126 86.6746C30.2695 87.148 29.9064 87.5307 29.4232 87.8226C28.94 88.1146 28.3719 88.2949 27.7188 88.3635C27.0544 88.4334 26.4552 88.3729 25.9212 88.1821C25.3842 87.9888 24.9491 87.6871 24.6161 87.2772C24.2799 86.8647 24.0808 86.3631 24.0187 85.7725C23.9703 85.3125 24.0119 84.889 24.1435 84.5019C24.2751 84.1149 24.4818 83.7874 24.7637 83.5195C25.0456 83.2516 25.388 83.0678 25.7909 82.968L25.8966 83.9732C25.6065 84.0812 25.3603 84.2793 25.1581 84.5675C24.9527 84.8533 24.8733 85.2176 24.9198 85.6605C24.961 86.0524 25.0994 86.3852 25.3348 86.659C25.5672 86.9303 25.8766 87.1289 26.263 87.2548C26.6463 87.3781 27.085 87.4139 27.5791 87.3619C28.0845 87.3088 28.5163 87.183 28.8744 86.9846C29.2322 86.7834 29.4993 86.5256 29.6759 86.2114C29.8521 85.8943 29.9193 85.537 29.8776 85.1395C29.8501 84.8782 29.7798 84.6459 29.6665 84.4425C29.5533 84.2391 29.4037 84.0725 29.2178 83.9428C29.0319 83.813 28.8164 83.7294 28.5714 83.692L28.4657 82.6869C28.8578 82.7031 29.2204 82.8071 29.5535 82.9989C29.8835 83.1881 30.1586 83.4563 30.3788 83.8035C30.5959 84.1482 30.7298 84.5618 30.7805 85.0446Z" fill="black"/>
<path d="M30.3872 79.2712L23.813 79.0417L23.8471 78.0658L24.84 78.1005L24.8424 78.032C24.5213 77.9008 24.265 77.6747 24.0733 77.3538C23.8817 77.0328 23.7928 76.6755 23.8065 76.2817C23.8091 76.2075 23.8138 76.1148 23.8205 76.0037C23.8272 75.8925 23.8345 75.8085 23.8422 75.7516L24.8694 75.7875C24.8596 75.8214 24.844 75.8994 24.8226 76.0215C24.7985 76.1407 24.7841 76.2673 24.7794 76.4014C24.7682 76.721 24.8253 77.0087 24.9506 77.2644C25.0732 77.5173 25.249 77.7205 25.4779 77.8742C25.704 78.025 25.9655 78.1055 26.2622 78.1159L30.4224 78.2611L30.3872 79.2712Z" fill="black"/>
<path d="M31.3433 70.9641C31.2402 71.549 31.0105 72.0376 30.6543 72.4299C30.2986 72.8195 29.8487 73.0938 29.3046 73.253C28.761 73.4094 28.1546 73.4286 27.4854 73.3106C26.8105 73.1916 26.243 72.9654 25.7829 72.6321C25.3232 72.2959 24.9929 71.8839 24.7918 71.3962C24.5913 70.9057 24.5426 70.368 24.6457 69.7832C24.7489 69.1983 24.9783 68.7111 25.334 68.3216C25.6902 67.9292 26.1415 67.6551 26.6879 67.4992C27.2349 67.3405 27.8457 67.3207 28.5206 67.4397C29.1898 67.5577 29.7528 67.7845 30.2096 68.1202C30.667 68.4531 30.9959 68.8648 31.1965 69.3553C31.3975 69.843 31.4464 70.3793 31.3433 70.9641ZM30.4492 70.8065C30.5275 70.3622 30.4781 69.9766 30.3009 69.6497C30.1237 69.3227 29.8617 69.0576 29.5148 68.8544C29.168 68.6512 28.7781 68.5114 28.3451 68.435C27.912 68.3587 27.4964 68.3564 27.0982 68.4283C26.6999 68.5001 26.3602 68.6591 26.0791 68.9052C25.7979 69.1514 25.6182 69.4966 25.5399 69.9408C25.4615 70.3851 25.5124 70.7709 25.6924 71.0984C25.8724 71.4258 26.1372 71.6914 26.4869 71.8951C26.8365 72.0988 27.2279 72.2389 27.6609 72.3152C28.0939 72.3916 28.5081 72.3936 28.9035 72.3213C29.299 72.2489 29.6359 72.0894 29.9142 71.8428C30.1925 71.5962 30.3708 71.2507 30.4492 70.8065Z" fill="black"/>
<path d="M24.7692 60.912L33.1108 63.6224L32.7985 64.5836L24.4568 61.8732L24.7692 60.912Z" fill="black"/>
<path d="M27.9721 53.2758L35.8554 57.1207L35.4123 58.0292L27.5291 54.1842L27.9721 53.2758Z" fill="black"/>
<path d="M41.5245 41.8973L42.2247 42.5277L39.6571 45.3794L38.9569 44.7489L41.5245 41.8973Z" fill="black"/>
<path d="M52.6283 30.3116C52.3548 29.9708 51.9995 29.7955 51.5625 29.7858C51.1255 29.7761 50.6818 29.9119 50.2314 30.1933C49.9021 30.3991 49.6473 30.6324 49.4669 30.8933C49.2889 31.1526 49.1892 31.4186 49.1676 31.6913C49.1486 31.9625 49.2131 32.2167 49.3614 32.454C49.4855 32.6525 49.6394 32.7937 49.8231 32.8776C50.0077 32.9575 50.2045 32.9978 50.4137 32.9984C50.6213 32.9966 50.8263 32.9745 51.0288 32.9322C51.2297 32.8874 51.4106 32.84 51.5713 32.7901L52.4538 32.5215C52.6793 32.4513 52.9386 32.3868 53.2319 32.3281C53.5276 32.2679 53.8328 32.2472 54.1476 32.266C54.4632 32.2809 54.7674 32.3635 55.06 32.514C55.3526 32.6644 55.6079 32.914 55.8258 33.2626C56.0769 33.6646 56.1985 34.0936 56.1906 34.5497C56.1851 35.0042 56.0412 35.4527 55.7588 35.8952C55.4788 36.3361 55.0531 36.7351 54.4817 37.0921C53.949 37.425 53.434 37.6273 52.9368 37.6989C52.442 37.7691 51.9871 37.72 51.5722 37.5517C51.1597 37.3819 50.8118 37.1027 50.5286 36.7141L51.4584 36.1331C51.6581 36.3988 51.8978 36.5723 52.1774 36.6534C52.4579 36.7306 52.7533 36.7346 53.0635 36.6653C53.3747 36.5921 53.6779 36.4632 53.9733 36.2786C54.3171 36.0638 54.591 35.8152 54.7951 35.5328C54.9976 35.248 55.1159 34.9553 55.1501 34.6544C55.1829 34.3512 55.1145 34.064 54.945 33.7928C54.7907 33.5458 54.5961 33.388 54.3613 33.3193C54.1264 33.2505 53.8662 33.2381 53.5805 33.282C53.2948 33.3258 52.9985 33.3931 52.6916 33.4839L51.6129 33.7943C50.9274 33.9903 50.3184 34.0393 49.7857 33.9412C49.2531 33.8431 48.8302 33.5434 48.517 33.0422C48.2568 32.6258 48.1424 32.1922 48.1739 31.7416C48.2063 31.287 48.3601 30.8543 48.6353 30.4433C48.9113 30.0284 49.2866 29.6727 49.7612 29.3762C50.2406 29.0766 50.7205 28.8963 51.2008 28.8352C51.6795 28.7717 52.1202 28.8195 52.5227 28.9787C52.9276 29.1365 53.2534 29.3992 53.5 29.7669L52.6283 30.3116Z" fill="black"/>
<path d="M60.6643 33.8247C60.1009 34.0755 59.5566 34.1585 59.0312 34.0736C58.5059 33.9888 58.0297 33.7616 57.6028 33.3923C57.1758 33.023 56.8288 32.5384 56.5617 31.9385C56.29 31.3281 56.1623 30.7396 56.1787 30.1728C56.1966 29.6023 56.3491 29.0953 56.6361 28.6519C56.9245 28.2047 57.34 27.8603 57.8825 27.6188C58.3051 27.4306 58.7207 27.3393 59.1295 27.3449C59.5382 27.3504 59.9135 27.4458 60.2554 27.6311C60.5973 27.8164 60.878 28.0853 61.0974 28.4376L60.1741 28.8487C59.9817 28.6062 59.7172 28.4333 59.3806 28.33C59.0454 28.223 58.6743 28.2601 58.2675 28.4412C57.9075 28.6015 57.6337 28.8359 57.4461 29.1445C57.2599 29.4493 57.1666 29.8049 57.1663 30.2113C57.1674 30.614 57.269 31.0422 57.4711 31.4961C57.6778 31.9603 57.9308 32.3321 58.2302 32.6114C58.5321 32.8895 58.8598 33.0639 59.2133 33.1347C59.5693 33.2043 59.9299 33.1579 60.295 32.9953C60.535 32.8884 60.7342 32.7497 60.8927 32.5792C61.0511 32.4086 61.1633 32.2149 61.2293 31.998C61.2953 31.7811 61.3081 31.5504 61.268 31.3057L62.1913 30.8946C62.2971 31.2726 62.3102 31.6496 62.2307 32.0256C62.1527 32.3979 61.9826 32.7424 61.7205 33.0591C61.4598 33.3721 61.1077 33.6273 60.6643 33.8247Z" fill="black"/>
<path d="M66.0327 31.6654L64.2195 25.3421L65.1581 25.0729L65.432 26.028L65.4978 26.0091C65.5234 25.6632 65.6592 25.3495 65.9052 25.0681C66.1512 24.7867 66.4636 24.5916 66.8423 24.483C66.9137 24.4626 67.0033 24.4384 67.1111 24.4104C67.2189 24.3825 67.3011 24.3634 67.3575 24.3531L67.6409 25.3412C67.6056 25.3424 67.5265 25.3517 67.4038 25.369C67.283 25.3829 67.1581 25.4083 67.0292 25.4453C66.7218 25.5334 66.4658 25.6766 66.2613 25.8749C66.0587 26.0696 65.9197 26.2995 65.8443 26.5647C65.7708 26.8264 65.775 27.0999 65.8568 27.3853L67.0042 31.3868L66.0327 31.6654Z" fill="black"/>
<path d="M74.229 30.0096C73.6409 30.0922 73.1053 30.0248 72.622 29.8073C72.1416 29.5893 71.7417 29.2462 71.4221 28.7779C71.1054 28.3092 70.8998 27.7384 70.8052 27.0655C70.7099 26.387 70.7496 25.7774 70.9244 25.2367C71.1021 24.6956 71.3918 24.2542 71.7936 23.9123C72.1981 23.57 72.6944 23.3575 73.2825 23.2749C73.8706 23.1922 74.4048 23.2599 74.8852 23.4778C75.3685 23.6953 75.7686 24.0398 76.0857 24.5113C76.4057 24.9825 76.6133 25.5573 76.7087 26.2359C76.8033 26.9088 76.7615 27.5143 76.5834 28.0526C76.4082 28.5904 76.1183 29.0305 75.7137 29.3727C75.312 29.7146 74.8171 29.9269 74.229 30.0096ZM74.1026 29.1105C74.5494 29.0477 74.9008 28.8815 75.157 28.612C75.4132 28.3424 75.5844 28.0113 75.6705 27.6187C75.7566 27.226 75.769 26.8119 75.7078 26.3765C75.6466 25.9411 75.5203 25.5451 75.3289 25.1886C75.1375 24.832 74.8814 24.5581 74.5604 24.3668C74.2394 24.1754 73.8556 24.1112 73.4089 24.174C72.9621 24.2367 72.6109 24.4043 72.3551 24.6767C72.0993 24.9491 71.9285 25.283 71.8428 25.6785C71.7571 26.074 71.7449 26.4895 71.8061 26.9249C71.8673 27.3603 71.9934 27.7549 72.1844 28.1086C72.3754 28.4623 72.6311 28.7334 72.9517 28.9219C73.2723 29.1104 73.6559 29.1733 74.1026 29.1105Z" fill="black"/>
<path d="M82.1748 20.5992V29.3701H81.1641V20.5992H82.1748Z" fill="black"/>
<path d="M90.0083 21.3364L88.7877 30.022L87.7868 29.8813L89.0075 21.1958L90.0083 21.3364Z" fill="black"/>
<path d="M105.019 30.7087L104.636 31.5694L101.13 30.0086L101.514 29.1479L105.019 30.7087Z" fill="black"/>
<path d="M119.468 37.6892C119.708 37.3238 119.765 36.9317 119.639 36.5131C119.513 36.0944 119.247 35.7145 118.84 35.3731C118.543 35.1235 118.242 34.9532 117.938 34.8623C117.637 34.7732 117.353 34.7605 117.087 34.8243C116.823 34.8899 116.601 35.0299 116.421 35.2443C116.271 35.4236 116.184 35.6136 116.161 35.8142C116.142 36.0145 116.165 36.2141 116.229 36.4132C116.295 36.6101 116.379 36.7983 116.482 36.9778C116.586 37.1551 116.687 37.3124 116.785 37.4498L117.313 38.2061C117.449 38.3989 117.591 38.6257 117.737 38.8864C117.886 39.149 118 39.4329 118.079 39.7381C118.162 40.0429 118.178 40.3577 118.125 40.6825C118.073 41.0073 117.914 41.3272 117.65 41.6421C117.345 42.0052 116.975 42.2534 116.539 42.3868C116.105 42.5221 115.634 42.5238 115.125 42.3919C114.62 42.2619 114.109 41.9803 113.592 41.5472C113.111 41.1434 112.76 40.7162 112.538 40.2654C112.318 39.8165 112.224 39.3687 112.256 38.9221C112.29 38.4773 112.448 38.0602 112.73 37.6708L113.57 38.3755C113.379 38.6476 113.288 38.9291 113.298 39.2201C113.311 39.5108 113.398 39.7929 113.56 40.0665C113.726 40.3398 113.942 40.5884 114.209 40.8123C114.52 41.0729 114.841 41.2566 115.172 41.3634C115.506 41.468 115.821 41.49 116.117 41.4296C116.416 41.367 116.668 41.2133 116.873 40.9683C117.061 40.7452 117.151 40.5114 117.143 40.2668C117.136 40.0222 117.068 39.7708 116.938 39.5127C116.808 39.2545 116.652 38.9935 116.471 38.7297L115.842 37.7998C115.444 37.2084 115.209 36.6443 115.138 36.1074C115.067 35.5705 115.221 35.0757 115.601 34.6229C115.917 34.2468 116.294 34.004 116.732 33.8947C117.174 33.7851 117.633 33.7976 118.109 33.9323C118.589 34.0666 119.043 34.3137 119.472 34.6734C119.905 35.0367 120.225 35.4374 120.431 35.8753C120.64 36.311 120.73 36.7449 120.703 37.1769C120.678 37.6107 120.529 38.0017 120.256 38.3499L119.468 37.6892Z" fill="black"/>
<path d="M118.611 46.4171C118.198 45.9588 117.951 45.4667 117.869 44.9408C117.788 44.415 117.857 43.8919 118.076 43.3717C118.295 42.8516 118.649 42.3718 119.137 41.9324C119.633 41.4853 120.154 41.182 120.698 41.0225C121.246 40.8633 121.775 40.8516 122.286 40.9875C122.8 41.1236 123.256 41.4123 123.653 41.8537C123.963 42.1974 124.178 42.5645 124.299 42.9549C124.42 43.3454 124.445 43.7318 124.375 44.1143C124.304 44.4967 124.135 44.8467 123.868 45.1642L123.192 44.4131C123.363 44.1552 123.446 43.8503 123.44 43.4982C123.438 43.1463 123.288 42.8049 122.99 42.4739C122.726 42.1811 122.419 41.9932 122.067 41.91C121.72 41.8271 121.353 41.8483 120.966 41.9736C120.584 42.0991 120.208 42.3281 119.839 42.6605C119.461 43.0006 119.186 43.3561 119.012 43.7271C118.841 44.1002 118.777 44.4658 118.819 44.8238C118.862 45.1839 119.018 45.5125 119.285 45.8096C119.461 46.0048 119.655 46.1514 119.866 46.2494C120.077 46.3474 120.296 46.3942 120.523 46.3899C120.749 46.3856 120.973 46.3266 121.193 46.2128L121.869 46.9639C121.542 47.1813 121.188 47.3103 120.806 47.3509C120.428 47.3917 120.047 47.3364 119.665 47.185C119.287 47.0337 118.935 46.7778 118.611 46.4171Z" fill="black"/>
<path d="M122.323 50.8557L127.777 47.1772L128.323 47.9867L127.499 48.5423L127.537 48.5992C127.874 48.5166 128.215 48.5488 128.558 48.6958C128.902 48.8428 129.184 49.0796 129.404 49.4063C129.446 49.4678 129.497 49.5455 129.556 49.6395C129.616 49.7334 129.66 49.8056 129.687 49.8561L128.835 50.4309C128.823 50.3977 128.79 50.3254 128.735 50.214C128.685 50.1035 128.622 49.9925 128.547 49.8813C128.368 49.6162 128.153 49.417 127.901 49.2837C127.653 49.1513 127.392 49.0901 127.116 49.1003C126.845 49.1113 126.586 49.1998 126.34 49.3658L122.888 51.6936L122.323 50.8557Z" fill="black"/>
<path d="M126.431 58.1394C126.171 57.6056 126.07 57.0754 126.127 56.5486C126.186 56.0243 126.389 55.5379 126.735 55.0893C127.083 54.6433 127.563 54.2713 128.173 53.9734C128.789 53.6731 129.381 53.5225 129.95 53.5217C130.519 53.5235 131.028 53.6626 131.478 53.939C131.928 54.218 132.284 54.6243 132.544 55.1581C132.804 55.6919 132.905 56.2209 132.846 56.7451C132.789 57.2719 132.585 57.7589 132.234 58.2062C131.885 58.6561 131.403 59.0312 130.787 59.3316C130.176 59.6295 129.587 59.7769 129.02 59.7738C128.455 59.7734 127.946 59.6337 127.496 59.3547C127.047 59.0783 126.692 58.6732 126.431 58.1394ZM127.247 57.7414C127.445 58.1469 127.712 58.4298 128.047 58.5901C128.383 58.7505 128.751 58.811 129.151 58.7715C129.551 58.732 129.948 58.6159 130.344 58.4232C130.739 58.2304 131.076 57.9879 131.356 57.6957C131.636 57.4035 131.818 57.0752 131.9 56.7109C131.983 56.3465 131.926 55.9616 131.728 55.5561C131.53 55.1507 131.262 54.8684 130.924 54.7093C130.586 54.5501 130.216 54.4909 129.813 54.5317C129.411 54.5724 129.012 54.6891 128.616 54.8819C128.221 55.0746 127.885 55.3165 127.608 55.6074C127.33 55.8984 127.151 56.2254 127.071 56.5885C126.991 56.9517 127.05 57.3359 127.247 57.7414Z" fill="black"/>
<path d="M137.659 62.4068L129.317 65.1172L129.005 64.156L137.347 61.4456L137.659 62.4068Z" fill="black"/>
<path d="M139.557 70.4676L130.919 71.9907L130.744 70.9953L139.381 69.4723L139.557 70.4676Z" fill="black"/>
<path d="M135.282 87.6389L134.344 87.5404L134.746 83.7242L135.683 83.8227L135.282 87.6389Z" fill="black"/>
<path d="M133.107 103.539C133.528 103.654 133.919 103.587 134.278 103.338C134.637 103.089 134.916 102.718 135.115 102.226C135.261 101.866 135.33 101.527 135.322 101.21C135.314 100.895 135.238 100.622 135.095 100.388C134.951 100.158 134.75 99.9901 134.49 99.8852C134.273 99.7975 134.066 99.7738 133.868 99.8139C133.671 99.8578 133.489 99.9409 133.319 100.063C133.152 100.187 132.999 100.325 132.86 100.478C132.724 100.633 132.606 100.777 132.505 100.912L131.949 101.648C131.808 101.838 131.636 102.042 131.433 102.262C131.229 102.485 130.994 102.681 130.729 102.851C130.465 103.024 130.17 103.136 129.845 103.186C129.52 103.237 129.166 103.185 128.785 103.031C128.346 102.853 127.995 102.578 127.733 102.204C127.471 101.833 127.324 101.385 127.292 100.862C127.259 100.34 127.369 99.7673 127.622 99.1425C127.857 98.5601 128.155 98.0938 128.515 97.7435C128.874 97.3959 129.271 97.1683 129.705 97.0605C130.139 96.9555 130.584 96.9769 131.042 97.1248L130.631 98.1414C130.313 98.0438 130.018 98.0443 129.744 98.143C129.471 98.2455 129.23 98.4159 129.02 98.6543C128.811 98.8964 128.642 99.1789 128.511 99.5019C128.359 99.8778 128.284 100.24 128.285 100.588C128.288 100.938 128.365 101.244 128.514 101.508C128.665 101.772 128.89 101.964 129.186 102.084C129.456 102.193 129.706 102.207 129.937 102.124C130.167 102.042 130.385 101.899 130.59 101.695C130.796 101.492 130.996 101.263 131.191 101.009L131.881 100.124C132.32 99.5628 132.784 99.1652 133.273 98.9315C133.761 98.6978 134.28 98.6916 134.828 98.913C135.283 99.097 135.63 99.3805 135.87 99.7636C136.111 100.15 136.241 100.591 136.26 101.085C136.28 101.583 136.186 102.091 135.976 102.61C135.764 103.134 135.482 103.562 135.129 103.894C134.779 104.227 134.395 104.447 133.975 104.555C133.555 104.665 133.137 104.644 132.721 104.492L133.107 103.539Z" fill="black"/>
<path d="M124.54 105.419C124.849 104.885 125.24 104.498 125.715 104.258C126.19 104.018 126.709 103.922 127.272 103.969C127.834 104.017 128.4 104.205 128.968 104.534C129.547 104.868 129.996 105.269 130.316 105.737C130.637 106.209 130.811 106.709 130.84 107.236C130.869 107.768 130.736 108.291 130.439 108.805C130.208 109.205 129.925 109.524 129.591 109.759C129.257 109.995 128.897 110.139 128.512 110.19C128.126 110.241 127.741 110.188 127.357 110.032L127.862 109.157C128.16 109.24 128.476 109.224 128.809 109.11C129.143 108.999 129.421 108.751 129.644 108.366C129.841 108.024 129.925 107.674 129.895 107.314C129.867 106.958 129.733 106.615 129.494 106.286C129.257 105.961 128.923 105.675 128.493 105.426C128.053 105.172 127.629 105.02 127.223 104.97C126.815 104.923 126.448 104.974 126.12 105.125C125.791 105.277 125.527 105.527 125.327 105.873C125.195 106.101 125.116 106.33 125.088 106.561C125.06 106.792 125.083 107.015 125.157 107.229C125.231 107.443 125.356 107.638 125.533 107.812L125.027 108.687C124.72 108.444 124.487 108.146 124.331 107.795C124.175 107.448 124.11 107.07 124.136 106.659C124.163 106.253 124.298 105.84 124.54 105.419Z" fill="black"/>
<path d="M121.466 110.322L126.65 114.372L126.048 115.141L125.265 114.529L125.223 114.583C125.406 114.878 125.48 115.212 125.447 115.584C125.413 115.957 125.275 116.298 125.033 116.608C124.987 116.667 124.929 116.739 124.858 116.825C124.787 116.911 124.732 116.975 124.692 117.016L123.882 116.384C123.91 116.362 123.968 116.308 124.058 116.222C124.147 116.139 124.233 116.045 124.316 115.94C124.513 115.688 124.636 115.421 124.685 115.141C124.734 114.864 124.711 114.597 124.616 114.338C124.522 114.083 124.358 113.864 124.124 113.681L120.844 111.118L121.466 110.322Z" fill="black"/>
<path d="M115.809 116.48C116.237 116.067 116.71 115.807 117.228 115.699C117.745 115.593 118.27 115.635 118.804 115.826C119.336 116.019 119.838 116.36 120.31 116.849C120.786 117.342 121.112 117.858 121.288 118.399C121.463 118.941 121.488 119.468 121.364 119.981C121.238 120.496 120.961 120.959 120.534 121.372C120.106 121.784 119.635 122.044 119.118 122.15C118.599 122.258 118.073 122.214 117.539 122.019C117.003 121.826 116.497 121.483 116.021 120.99C115.549 120.501 115.227 119.987 115.055 119.447C114.881 118.909 114.856 118.382 114.983 117.868C115.107 117.355 115.382 116.892 115.809 116.48ZM116.44 117.133C116.116 117.446 115.929 117.787 115.88 118.156C115.831 118.525 115.887 118.893 116.049 119.261C116.21 119.63 116.443 119.972 116.748 120.288C117.054 120.604 117.389 120.851 117.753 121.027C118.118 121.202 118.486 121.274 118.858 121.24C119.23 121.206 119.578 121.032 119.903 120.719C120.227 120.405 120.413 120.063 120.46 119.693C120.507 119.322 120.449 118.951 120.286 118.581C120.122 118.211 119.888 117.867 119.583 117.551C119.277 117.235 118.943 116.99 118.581 116.816C118.218 116.642 117.852 116.573 117.482 116.609C117.112 116.645 116.765 116.819 116.44 117.133Z" fill="black"/>
<path d="M115.22 128.477L110.065 121.382L110.882 120.787L116.038 127.883L115.22 128.477Z" fill="black"/>
<path d="M108.14 132.772L104.023 125.028L104.915 124.553L109.033 132.298L108.14 132.772Z" fill="black"/>
<path d="M82.8792 134.811L82.8135 133.871L86.6414 133.603L86.7071 134.543L82.8792 134.811Z" fill="black"/>
<ellipse cx="81.335" cy="80" rx="37.185" ry="37.52" fill="black"/>
<path d="M81 54.54L86.941 74.0591L106.46 80L86.941 85.941L81 105.46L75.0591 85.941L55.54 80L75.0591 74.0591L81 54.54Z" fill="#D7D5D3"/>
<defs>
<filter id="filter0_d_300_655" x="0.599999" y="0.939999" width="160.8" height="160.8" filterUnits="userSpaceOnUse" color-interpolation-filters="sRGB">
<feFlood flood-opacity="0" result="BackgroundImageFix"/>
<feColorMatrix in="SourceAlpha" type="matrix" values="0 0 0 0 0 0 0 0 0 0 0 0 0 0 0 0 0 0 127 0" result="hardAlpha"/>
<feOffset dy="1.34"/>
<feGaussianBlur stdDeviation="6.7"/>
<feComposite in2="hardAlpha" operator="out"/>
<feColorMatrix type="matrix" values="0 0 0 0 0 0 0 0 0 0 0 0 0 0 0 0 0 0 0.16 0"/>
<feBlend mode="normal" in2="BackgroundImageFix" result="effect1_dropShadow_300_655"/>
<feBlend mode="normal" in="SourceGraphic" in2="effect1_dropShadow_300_655" result="shape"/>
</filter>
</defs>
</svg>
