<svg width="78" height="86" viewBox="0 0 78 86" fill="none" xmlns="http://www.w3.org/2000/svg">
<path d="M73.6666 25.872L47.6667 3.28098C45.2833 1.1681 42.1978 0 39.0001 0C35.8024 0 32.7169 1.1681 30.3335 3.28098L4.33371 25.872C2.95732 27.092 1.85896 28.5887 1.11178 30.2623C0.364598 31.936 -0.0142677 33.7482 0.000410772 35.5783V73.1154C0.000410772 76.5326 1.37004 79.8099 3.808 82.2262C6.24595 84.6425 9.55253 86 13.0003 86H64.9999C68.4477 86 71.7543 84.6425 74.1923 82.2262C76.6302 79.8099 77.9999 76.5326 77.9999 73.1154V35.5354C78.0084 33.7125 77.6265 31.9086 76.8796 30.2427C76.1326 28.5769 75.0375 27.0872 73.6666 25.872ZM47.6667 77.4103H30.3335V55.936C30.3335 54.7969 30.7901 53.7045 31.6027 52.8991C32.4154 52.0936 33.5176 51.6411 34.6668 51.6411H43.3334C44.4827 51.6411 45.5849 52.0936 46.3975 52.8991C47.2102 53.7045 47.6667 54.7969 47.6667 55.936V77.4103ZM69.3333 73.1154C69.3333 74.2545 68.8767 75.3469 68.0641 76.1523C67.2514 76.9578 66.1492 77.4103 64.9999 77.4103H56.3333V55.936C56.3333 52.5188 54.9637 49.2415 52.5258 46.8252C50.0878 44.4089 46.7812 43.0514 43.3334 43.0514H34.6668C31.219 43.0514 27.9125 44.4089 25.4745 46.8252C23.0366 49.2415 21.6669 52.5188 21.6669 55.936V77.4103H13.0003C11.8511 77.4103 10.7489 76.9578 9.93621 76.1523C9.12356 75.3469 8.66702 74.2545 8.66702 73.1154V35.5354C8.6678 34.9256 8.79959 34.3229 9.05362 33.7675C9.30766 33.2121 9.67811 32.7167 10.1403 32.3142L36.1402 9.76622C36.9309 9.07767 37.9475 8.69794 39.0001 8.69794C40.0527 8.69794 41.0693 9.07767 41.8601 9.76622L67.8599 32.3142C68.3222 32.7167 68.6926 33.2121 68.9466 33.7675C69.2007 34.3229 69.3325 34.9256 69.3333 35.5354V73.1154Z" fill="white"/>
</svg>
