<svg width="55" height="24" viewBox="0 0 55 24" fill="none" xmlns="http://www.w3.org/2000/svg">
<path d="M48.955 6.75017C48.8847 6.81989 48.829 6.90284 48.7909 6.99424C48.7528 7.08563 48.7332 7.18366 48.7332 7.28267C48.7332 7.38168 48.7528 7.47971 48.7909 7.5711C48.829 7.6625 48.8847 7.74545 48.955 7.81517L52.405 11.2652H34.75C34.5511 11.2652 34.3603 11.3442 34.2197 11.4848C34.079 11.6255 34 11.8163 34 12.0152C34 12.2141 34.079 12.4048 34.2197 12.5455C34.3603 12.6862 34.5511 12.7652 34.75 12.7652H52.39L48.955 16.1927C48.8154 16.3332 48.7369 16.5233 48.7369 16.7214C48.7369 16.9196 48.8154 17.1096 48.955 17.2502C49.0956 17.3899 49.2857 17.4683 49.4838 17.4683C49.6819 17.4683 49.872 17.3899 50.0125 17.2502L54.7825 12.4802C54.8467 12.4186 54.8978 12.3446 54.9327 12.2628C54.9676 12.1809 54.9856 12.0929 54.9856 12.0039C54.9856 11.9149 54.9676 11.8269 54.9327 11.7451C54.8978 11.6632 54.8467 11.5893 54.7825 11.5277L50.02 6.75017C49.9503 6.67987 49.8674 6.62408 49.776 6.586C49.6846 6.54792 49.5866 6.52832 49.4875 6.52832C49.3885 6.52832 49.2905 6.54792 49.1991 6.586C49.1077 6.62408 49.0248 6.67987 48.955 6.75017Z" fill="#E5AB8E"/>
</svg>
