<svg width="88" height="57" viewBox="0 0 88 57" fill="none" xmlns="http://www.w3.org/2000/svg">
<g clip-path="url(#clip0_779_3850)">
<path d="M34.2035 29.9152C34.7388 29.3842 35.279 28.858 35.8072 28.3199C37.6309 26.4699 39.4426 24.6104 41.2782 22.7699C41.4622 22.5866 41.7563 22.5318 42.0168 22.4009C42.1063 22.6383 42.1586 22.8881 42.1721 23.1413C41.7706 26.7509 41.8351 30.3342 42.7027 33.8794C42.713 33.9887 42.713 34.0987 42.7027 34.208C42.4494 34.2223 42.1936 34.2485 41.9355 34.2485C37.9329 34.2707 33.931 34.2898 29.93 34.3056C28.2569 34.3056 27.3224 33.4223 27.3009 31.7485C27.2411 26.208 27.2004 20.6652 27.1479 15.1223C27.1238 14.5614 27.2311 14.0026 27.4613 13.4901C27.6916 12.9777 28.0384 12.5257 28.4744 12.1699C32.6881 8.63897 36.89 5.08897 41.1181 1.5723C41.7068 1.06432 42.4584 0.782738 43.2373 0.778372C44.0161 0.774006 44.7708 1.04715 45.3653 1.54849C49.6834 4.99928 53.9856 8.46357 58.2719 11.9413C58.7129 12.2939 59.0657 12.7436 59.3025 13.2551C59.5394 13.7666 59.6538 14.3259 59.6367 14.889C59.6749 20.5128 59.7019 26.1374 59.7179 31.7628C59.7179 32.9985 58.9291 34.0437 57.7365 34.089C55.2777 34.214 52.8139 34.2068 50.3558 34.0675C48.6087 33.9485 47.3228 32.8366 46.5771 31.2509C45.3684 28.7021 44.6725 25.9422 44.5287 23.1271C44.5519 22.8705 44.6098 22.6182 44.7009 22.3771C44.9627 22.4648 45.2099 22.5908 45.4346 22.7509C47.5857 24.8223 49.7057 26.9104 51.8401 28.9937C52.0791 29.2318 52.3444 29.4699 52.7627 29.8675C52.9874 27.6937 52.6145 25.8652 51.5676 24.1818C50.5208 22.4985 48.9385 21.4771 47.0407 20.9128L47.0934 20.6985H56.1542L56.245 20.4271C55.038 18.9398 53.3749 17.8876 51.5103 17.4318C49.5337 16.9556 47.6861 17.4033 45.8218 18.1675L52.495 11.3747C50.2459 11.158 48.3792 11.539 46.6751 12.6199C44.9351 13.7247 43.9169 15.3699 43.3289 17.3628C42.5211 14.8485 41.0655 12.9818 38.6013 12.0056C37.2124 11.4708 35.7132 11.2828 34.2346 11.458L40.8432 18.1247L40.7093 18.3628C38.5248 17.1914 36.2805 16.9461 33.9908 17.8866C32.5103 18.5077 31.2155 19.4982 30.2311 20.7628H39.4331C35.3101 22.4437 33.735 25.5628 33.8999 29.7199L34.2035 29.9152Z" fill="white"/>
<path d="M3.67992 48.3987V41.1272H0.142578V38.6582H11.0176V41.1272H7.46824V48.3987H3.67992Z" fill="white"/>
<path d="M11.9648 48.3986V38.5795H15.3492V41.6272C15.7819 41.3227 16.2592 41.0865 16.7642 40.9272C17.2756 40.7683 17.8083 40.688 18.344 40.6891C19.4594 40.6891 20.2745 40.97 20.7891 41.5319C21.3038 42.0938 21.5627 42.9859 21.5659 44.2081V48.3986H18.1791V44.8486C18.1791 44.2914 18.0875 43.9049 17.9043 43.6891C17.721 43.4732 17.4023 43.366 16.9482 43.3676C16.5272 43.3435 16.1112 43.4693 15.7747 43.7224C15.6328 43.8424 15.5204 43.9932 15.4463 44.1633C15.3721 44.3334 15.3381 44.5181 15.3469 44.7034V48.3986H11.9648Z" fill="white"/>
<path d="M33.7097 46.0939C33.4547 46.932 32.8619 47.5669 31.9314 47.9986C31.0008 48.4304 29.7627 48.6478 28.2171 48.651C26.4963 48.651 25.1666 48.3002 24.2281 47.5986C23.2895 46.8971 22.8203 45.9097 22.8203 44.6367C22.8203 43.351 23.2895 42.3566 24.2281 41.6534C25.1666 40.9502 26.4963 40.5986 28.2171 40.5986C30.0416 40.5986 31.4239 40.9955 32.364 41.7891C33.3041 42.5828 33.7749 43.7471 33.7765 45.282V45.4153H26.4509C26.4441 45.6055 26.4883 45.794 26.5791 45.9614C26.6698 46.1288 26.8038 46.2691 26.9671 46.3677C27.4074 46.6161 27.9104 46.7327 28.4155 46.7034C28.7629 46.7134 29.1093 46.6618 29.4385 46.551C29.6801 46.4758 29.8884 46.3203 30.0289 46.1105L33.7097 46.0939ZM26.2716 43.7891H30.2918C30.2752 43.5956 30.2155 43.4083 30.1171 43.2407C30.0187 43.073 29.884 42.9294 29.7229 42.8201C29.3255 42.5732 28.8617 42.4536 28.394 42.4772C27.8941 42.4554 27.3978 42.5716 26.9599 42.8129C26.7814 42.9166 26.6274 43.0575 26.5086 43.226C26.3898 43.3945 26.309 43.5866 26.2716 43.7891Z" fill="white"/>
<path d="M41.7051 48.3986V38.6581H49.0188C50.4019 38.6581 51.4695 38.9335 52.2216 39.4843C52.5736 39.7635 52.8579 40.1182 53.0533 40.5219C53.2487 40.9257 53.3502 41.3682 53.3502 41.8165C53.3502 42.2647 53.2487 42.7072 53.0533 43.111C52.8579 43.5147 52.5736 43.8694 52.2216 44.1486C51.4695 44.6978 50.4019 44.9732 49.0188 44.9748H45.4934V48.3986H41.7051ZM47.5704 40.7534H45.4934V42.8534H47.5704C48.1871 42.8534 48.6133 42.774 48.8491 42.6153C48.9609 42.5104 49.0501 42.3839 49.111 42.2434C49.1719 42.103 49.2033 41.9516 49.2033 41.7986C49.2033 41.6456 49.1719 41.4942 49.111 41.3538C49.0501 41.2133 48.9609 41.0868 48.8491 40.9819C48.6125 40.8272 48.1871 40.7534 47.5704 40.7534Z" fill="white"/>
<path d="M61.1253 47.3654C60.7015 47.8084 60.1756 48.1418 59.5932 48.3368C58.8582 48.5614 58.0912 48.6651 57.3226 48.6439C56.0846 48.6439 55.1548 48.4376 54.5334 48.0249C54.2282 47.8222 53.9815 47.5435 53.818 47.2164C53.6545 46.8894 53.5798 46.5254 53.6013 46.1606C53.598 45.9052 53.6334 45.6507 53.7064 45.4058C53.7685 45.1913 53.8689 44.9896 54.0028 44.8106C54.277 44.4809 54.6377 44.2336 55.0449 44.0963C55.4799 43.9415 56.2973 43.8249 57.5019 43.7439C57.8987 43.7185 58.4141 43.6947 59.0483 43.6725C60.323 43.6201 60.9604 43.4423 60.9604 43.1392C60.9604 42.932 60.8265 42.7677 60.5589 42.6415C60.2098 42.5023 59.8351 42.4383 59.4594 42.4535C59.0253 42.4286 58.5904 42.4868 58.1783 42.6249C58.0579 42.6739 57.9528 42.754 57.8738 42.8569C57.7948 42.9599 57.7448 43.082 57.729 43.2106H54.237C54.2495 42.7953 54.3768 42.3914 54.605 42.0436C54.8331 41.6957 55.1532 41.4174 55.5301 41.2392C56.3268 40.8407 57.6302 40.6423 59.4403 40.6439C60.2808 40.6307 61.1206 40.7001 61.9475 40.8511C62.5007 40.937 63.027 41.1471 63.4867 41.4653C63.8503 41.7382 64.1301 42.1068 64.2946 42.5296C64.4767 43.1051 64.5575 43.7077 64.5336 44.3106V47.2296C64.5253 47.448 64.5503 47.6664 64.6077 47.8773C64.6547 48.0219 64.7468 48.1479 64.8706 48.2368V48.4011H61.3452C61.2817 48.247 61.2321 48.0877 61.1971 47.9249C61.1573 47.7407 61.1333 47.5535 61.1253 47.3654ZM61.111 44.882C60.7588 45.0582 60.1549 45.1749 59.2993 45.232C59.0602 45.232 58.8643 45.2582 58.7304 45.2701C58.3818 45.2792 58.0381 45.3535 57.717 45.4892C57.6307 45.5339 57.5594 45.6028 57.5118 45.6874C57.4643 45.772 57.4425 45.8686 57.4493 45.9654C57.4462 46.0776 57.4745 46.1885 57.5311 46.2857C57.5876 46.3828 57.6702 46.4623 57.7696 46.5154C58.0494 46.6602 58.363 46.7277 58.6779 46.7106C59.3048 46.742 59.9268 46.5852 60.4633 46.2606C60.6696 46.1378 60.8399 45.9632 60.9573 45.7543C61.0748 45.5454 61.1352 45.3095 61.1325 45.0701C61.1325 45.0177 61.1325 44.9796 61.1325 44.9558C61.1302 44.9278 61.1229 44.9004 61.111 44.8749V44.882Z" fill="white"/>
<path d="M66.426 48.3986V38.5795H69.8773V48.3986H66.426Z" fill="white"/>
<path d="M71.7559 48.3986V40.8438H75.1164V41.6272C75.5365 41.3185 76.0026 41.0774 76.4978 40.9129C76.9924 40.7609 77.5075 40.6854 78.0251 40.6891C78.5572 40.6718 79.0854 40.7838 79.5643 41.0152C80.0052 41.2586 80.3731 41.6144 80.6303 42.0462C81.0838 41.6105 81.6147 41.2625 82.1958 41.02C82.7752 40.7943 83.3927 40.6819 84.0147 40.6891C85.0855 40.6891 85.8702 40.97 86.369 41.5319C86.8677 42.0938 87.1163 42.9859 87.1147 44.2081V48.3986H83.7686V44.8486C83.7686 44.2962 83.6801 43.9105 83.5032 43.6938C83.3882 43.575 83.2475 43.4838 83.0917 43.4273C82.936 43.3707 82.7694 43.3503 82.6045 43.3676C82.2005 43.3443 81.8021 43.4707 81.486 43.7224C81.3509 43.8465 81.2449 43.9988 81.1755 44.1683C81.1061 44.3378 81.075 44.5205 81.0845 44.7034V48.3986H77.7981V44.8486C77.7981 44.2962 77.7096 43.9105 77.5327 43.6938C77.3559 43.4772 77.0547 43.3676 76.6269 43.3676C76.2252 43.3452 75.8293 43.4715 75.5155 43.7224C75.3804 43.8465 75.2744 43.9988 75.205 44.1683C75.1356 44.3378 75.1046 44.5205 75.114 44.7034V48.3986H71.7559Z" fill="white"/>
<path d="M13.39 55.6961H11.956V55.5223C12.0633 55.5179 12.1699 55.5019 12.2739 55.4747C12.3575 55.4485 12.4005 55.4199 12.4005 55.3842C12.4005 55.3485 12.4005 55.3509 12.4005 55.3294C12.4005 55.308 12.4005 55.2914 12.3862 55.2747L12.097 54.4985H10.878C10.8326 54.6128 10.7944 54.7104 10.7657 54.7961C10.737 54.8818 10.7107 54.958 10.6892 55.0342C10.6677 55.1104 10.6534 55.1604 10.6438 55.2056C10.641 55.2413 10.641 55.2771 10.6438 55.3128C10.6438 55.3771 10.6964 55.4271 10.7992 55.4652C10.9112 55.5018 11.0279 55.5227 11.1457 55.5271V55.7009H9.83594V55.5271C9.89011 55.5227 9.94375 55.5131 9.99609 55.4985C10.0518 55.4869 10.1051 55.4659 10.1538 55.4366C10.2115 55.3993 10.2624 55.3527 10.3044 55.2985C10.3477 55.2373 10.3831 55.1709 10.4096 55.1009C10.5848 54.666 10.7777 54.1779 10.988 53.6366C11.1983 53.0937 11.3871 52.6128 11.552 52.189H11.748L12.9048 55.1771C12.9257 55.2314 12.9538 55.2827 12.9885 55.3294C13.0249 55.3752 13.0695 55.414 13.1199 55.4437C13.1649 55.4709 13.2142 55.4902 13.2657 55.5009C13.3156 55.5151 13.3669 55.5239 13.4187 55.5271L13.39 55.6961ZM11.9918 54.2818L11.4636 52.9366L10.945 54.2818H11.9918Z" fill="white"/>
<path d="M15.2994 53.601C15.3004 53.6785 15.2789 53.7546 15.2373 53.82C15.2175 53.8517 15.1896 53.8775 15.1564 53.8947C15.1231 53.9119 15.0859 53.9198 15.0485 53.9177C15.0108 53.9202 14.973 53.9152 14.9372 53.903C14.9015 53.8907 14.8686 53.8714 14.8405 53.8462C14.8187 53.8266 14.8011 53.8028 14.7888 53.7762C14.7764 53.7496 14.7697 53.7208 14.7688 53.6915C14.7662 53.659 14.7662 53.6263 14.7688 53.5938C14.7688 53.5629 14.7688 53.5343 14.7855 53.5058C14.6888 53.5122 14.5956 53.5443 14.5155 53.5986C14.4087 53.6645 14.3187 53.7541 14.2526 53.8605V55.2605C14.2508 55.3095 14.2623 55.358 14.286 55.401C14.3116 55.4384 14.3484 55.4667 14.3912 55.4819C14.4419 55.501 14.495 55.513 14.5489 55.5177C14.6135 55.5177 14.6684 55.532 14.7163 55.5343V55.6962H13.4423V55.5343H13.5594C13.5944 55.5326 13.6289 55.5261 13.6622 55.5153C13.705 55.504 13.7419 55.4767 13.765 55.4391C13.7883 55.3951 13.7999 55.3459 13.7985 55.2962V53.8034C13.7983 53.7513 13.786 53.7 13.7626 53.6534C13.74 53.6064 13.7053 53.5662 13.6622 53.5367C13.6284 53.516 13.5912 53.5014 13.5523 53.4939C13.5073 53.4847 13.4618 53.4783 13.416 53.4748V53.3153L14.2191 53.2605L14.2526 53.2962V53.6343H14.2669C14.3573 53.5122 14.472 53.4101 14.6039 53.3343C14.7064 53.2719 14.8232 53.2366 14.9433 53.2319C14.9879 53.2317 15.032 53.2404 15.0731 53.2576C15.1142 53.2748 15.1513 53.3001 15.1823 53.332C15.2193 53.3664 15.2487 53.4081 15.2688 53.4544C15.289 53.5007 15.2994 53.5506 15.2994 53.601Z" fill="white"/>
<path d="M16.6201 55.7604C16.466 55.768 16.3121 55.7406 16.1701 55.6804C16.0281 55.6202 15.9017 55.5287 15.8003 55.4128C15.5913 55.1495 15.486 54.8193 15.5039 54.4842C15.5029 54.3222 15.5296 54.1611 15.5828 54.008C15.6381 53.8616 15.719 53.7262 15.8218 53.608C15.9242 53.4858 16.0526 53.3878 16.1977 53.3211C16.3428 53.2544 16.501 53.2206 16.6608 53.2223C16.8663 53.2134 17.0689 53.2729 17.2368 53.3914C17.3092 53.4442 17.3676 53.5139 17.4068 53.5945C17.446 53.675 17.4647 53.7638 17.4614 53.8533C17.4622 53.9296 17.4415 54.0047 17.4017 54.0699C17.3808 54.1013 17.3518 54.1265 17.3177 54.1428C17.2836 54.1592 17.2457 54.1661 17.2081 54.1628C17.1269 54.1674 17.0469 54.1419 16.9834 54.0914C16.9593 54.0711 16.9398 54.046 16.9262 54.0177C16.9126 53.9893 16.9053 53.9585 16.9046 53.9271C16.905 53.8516 16.9146 53.7764 16.9332 53.7033C16.949 53.6478 16.9609 53.5913 16.9691 53.5342C16.939 53.4855 16.8924 53.4491 16.8376 53.4318C16.7769 53.4151 16.7142 53.4071 16.6512 53.408C16.5735 53.4079 16.4968 53.4249 16.4265 53.458C16.3446 53.5024 16.2742 53.5652 16.221 53.6413C16.1519 53.7407 16.1024 53.8522 16.0752 53.9699C16.0343 54.1318 16.0151 54.2983 16.0178 54.4652C16.0061 54.7267 16.0763 54.9855 16.2186 55.2056C16.2751 55.2947 16.3535 55.3678 16.4464 55.4183C16.5392 55.4687 16.6434 55.4946 16.7492 55.4937C16.8907 55.4993 17.0301 55.4583 17.1459 55.3771C17.2689 55.2843 17.3707 55.1666 17.4447 55.0318L17.6001 55.1342C17.4994 55.3201 17.353 55.4774 17.1746 55.5913C17.0104 55.7006 16.8176 55.7593 16.6201 55.7604Z" fill="white"/>
<path d="M20.4125 55.6962H19.2175V55.5343H19.3418C19.3799 55.5329 19.4176 55.5264 19.4541 55.5152C19.4959 55.5032 19.5317 55.476 19.5545 55.439C19.579 55.3955 19.5906 55.346 19.588 55.2962V54.0581C19.5969 53.9163 19.5545 53.7761 19.4684 53.6628C19.4325 53.6193 19.3872 53.5843 19.3359 53.5604C19.2847 53.5365 19.2287 53.5243 19.1721 53.5247C19.0905 53.5227 19.0094 53.5365 18.9331 53.5652C18.8639 53.5895 18.7981 53.6223 18.7371 53.6628C18.6887 53.6965 18.646 53.7374 18.6104 53.7843C18.5793 53.8271 18.5578 53.8604 18.5411 53.8866V55.27C18.5379 55.3183 18.5495 55.3665 18.5745 55.4081C18.5982 55.4459 18.6333 55.4751 18.6749 55.4914C18.7107 55.5079 18.7485 55.5199 18.7873 55.5271C18.8281 55.5366 18.8697 55.5422 18.9115 55.5438V55.7057H17.7308V55.5438H17.8456C17.8802 55.5399 17.9146 55.5336 17.9483 55.5247C17.9906 55.5122 18.027 55.4852 18.0511 55.4485C18.0744 55.4046 18.086 55.3554 18.0846 55.3057V52.4938C18.0845 52.4368 18.0714 52.3807 18.0463 52.3295C18.0266 52.2789 17.9926 52.2351 17.9483 52.2033C17.9002 52.1779 17.8473 52.1625 17.793 52.1581L17.6113 52.1414V51.9843L18.5052 51.9319L18.5411 51.9676V53.6343C18.5937 53.5795 18.6439 53.5343 18.6869 53.4914C18.7413 53.443 18.7997 53.3992 18.8614 53.3605C18.9304 53.3191 19.0042 53.2863 19.0813 53.2628C19.1736 53.2359 19.2695 53.2231 19.3657 53.2247C19.4585 53.2188 19.5515 53.2339 19.6376 53.2689C19.7237 53.304 19.8008 53.3581 19.8628 53.4271C19.9896 53.5961 20.0515 53.8047 20.0373 54.0152V55.2676C20.0348 55.3148 20.0456 55.3618 20.0684 55.4033C20.0917 55.4423 20.1281 55.4718 20.1711 55.4866C20.2046 55.4999 20.239 55.5111 20.2739 55.52C20.3132 55.5284 20.3532 55.5332 20.3934 55.5343L20.4125 55.6962Z" fill="white"/>
<path d="M21.8713 55.6961H20.7073V55.5342H20.8221C20.8578 55.5322 20.8931 55.5258 20.9272 55.5152C20.969 55.5032 21.0049 55.476 21.0276 55.439C21.0521 55.3955 21.0637 55.3459 21.0611 55.2961V53.8033C21.0617 53.7534 21.0494 53.7041 21.0252 53.6604C21.0019 53.6166 20.9683 53.579 20.9272 53.5509C20.8853 53.5278 20.8402 53.511 20.7934 53.5009C20.7399 53.4884 20.6856 53.4797 20.6309 53.4747V53.3152L21.4817 53.2604L21.5176 53.2961V55.2557C21.5155 55.3051 21.5261 55.3544 21.5487 55.3985C21.5735 55.4371 21.6105 55.4664 21.6538 55.4818L21.7566 55.5176C21.7944 55.5258 21.8328 55.5314 21.8713 55.5342V55.6961ZM21.5654 52.3128C21.5642 52.4003 21.532 52.4847 21.4745 52.5509C21.4467 52.5823 21.4126 52.6075 21.3742 52.6247C21.3359 52.6419 21.2943 52.6508 21.2523 52.6508C21.2102 52.6508 21.1687 52.6419 21.1303 52.6247C21.092 52.6075 21.0578 52.5823 21.03 52.5509C20.9722 52.4896 20.9397 52.4088 20.9392 52.3247C20.9376 52.2367 20.9702 52.1514 21.03 52.0866C21.0569 52.0553 21.0902 52.0302 21.1278 52.0129C21.1653 51.9957 21.2062 51.9867 21.2475 51.9866C21.2892 51.986 21.3306 51.9937 21.3693 52.0092C21.408 52.0247 21.4432 52.0478 21.4729 52.0771C21.5025 52.1064 21.5259 52.1413 21.5418 52.1797C21.5577 52.2181 21.5657 52.2593 21.5654 52.3009V52.3128Z" fill="white"/>
<path d="M23.6622 55.5891C23.557 55.6319 23.4566 55.67 23.361 55.6986C23.2486 55.7317 23.1317 55.7469 23.0145 55.7438C22.9362 55.7526 22.857 55.7434 22.7828 55.717C22.7087 55.6906 22.6416 55.6477 22.5867 55.5915C22.497 55.4661 22.4532 55.3141 22.4624 55.1605V53.5319H22.0273V53.2938H22.4719V52.5438H22.926V53.2938H23.6191V53.5319H22.926V54.8748C22.9245 54.9591 22.9285 55.0434 22.938 55.1272C22.9432 55.1889 22.9611 55.2488 22.9906 55.3034C23.0162 55.3513 23.0575 55.3891 23.1077 55.4105C23.1745 55.437 23.2461 55.4492 23.318 55.4462C23.3586 55.4462 23.4184 55.4462 23.4972 55.4462C23.5539 55.4433 23.6102 55.4337 23.6646 55.4176L23.6622 55.5891Z" fill="white"/>
<path d="M26.0506 55.1296C25.9556 55.3147 25.815 55.4729 25.6419 55.5891C25.4689 55.7046 25.2645 55.7644 25.0563 55.7605C24.8812 55.7635 24.7075 55.7286 24.5472 55.6581C24.4071 55.5941 24.2836 55.4988 24.1863 55.3796C24.0899 55.2578 24.0177 55.1188 23.9736 54.9701C23.9272 54.8091 23.9039 54.6423 23.9043 54.4748C23.904 54.3179 23.929 54.1619 23.9784 54.0129C24.026 53.8657 24.1006 53.7284 24.1983 53.6082C24.2923 53.4909 24.4105 53.3951 24.5448 53.3272C24.6889 53.2563 24.8478 53.2204 25.0085 53.2224C25.1641 53.2177 25.319 53.2461 25.4627 53.3058C25.5823 53.3597 25.6871 53.4413 25.7685 53.5439C25.8447 53.6392 25.9016 53.7484 25.9359 53.8653C25.9732 53.9962 25.9917 54.1316 25.9909 54.2677V54.4296H24.3918C24.39 54.5745 24.4053 54.7191 24.4373 54.8605C24.4626 54.9814 24.5113 55.0963 24.5807 55.1986C24.6396 55.2926 24.7219 55.3697 24.8197 55.4224C24.9336 55.48 25.06 55.5087 25.1878 55.5058C25.3203 55.5097 25.451 55.474 25.563 55.4034C25.6931 55.3075 25.7981 55.1817 25.869 55.0367L26.0506 55.1296ZM25.5081 54.2129C25.5078 54.1148 25.4998 54.0169 25.4841 53.9201C25.4729 53.8303 25.4479 53.7428 25.41 53.6605C25.3739 53.5878 25.3206 53.5249 25.2547 53.4772C25.1836 53.4311 25.1005 53.4071 25.0157 53.4082C24.9326 53.4071 24.8505 53.4258 24.7761 53.4626C24.7017 53.4995 24.6372 53.5534 24.5878 53.6201C24.4651 53.7933 24.4006 54.0009 24.4038 54.2129H25.5081Z" fill="white"/>
<path d="M27.4464 55.7604C27.2919 55.7681 27.1377 55.7409 26.9953 55.6807C26.8528 55.6205 26.726 55.5289 26.6243 55.4128C26.4165 55.1489 26.3112 54.8192 26.3279 54.4842C26.3263 54.3219 26.3538 54.1606 26.4092 54.008C26.4643 53.8615 26.5452 53.7261 26.6482 53.608C26.7506 53.4858 26.8789 53.3878 27.024 53.3211C27.1691 53.2544 27.3273 53.2206 27.4871 53.2223C27.6934 53.2135 27.8967 53.2729 28.0655 53.3913C28.1372 53.4447 28.1949 53.5146 28.2336 53.5951C28.2723 53.6755 28.2909 53.7641 28.2878 53.8533C28.2896 53.9297 28.2688 54.0051 28.228 54.0699C28.2071 54.1013 28.1781 54.1265 28.144 54.1428C28.11 54.1592 28.0721 54.1661 28.0345 54.1628C27.9539 54.1679 27.8744 54.1424 27.8121 54.0913C27.7872 54.0716 27.7671 54.0467 27.753 54.0183C27.739 53.9899 27.7314 53.9587 27.7309 53.9271C27.731 53.8514 27.7414 53.7761 27.762 53.7033C27.7772 53.6478 27.7884 53.5913 27.7954 53.5342C27.7668 53.4842 27.7196 53.4474 27.664 53.4318C27.6033 53.4151 27.5405 53.4071 27.4775 53.408C27.4006 53.4076 27.3246 53.4247 27.2553 53.458C27.1722 53.5015 27.1008 53.5644 27.0473 53.6413C26.9793 53.7413 26.9299 53.8526 26.9015 53.9699C26.8607 54.1318 26.8414 54.2983 26.8441 54.4652C26.8333 54.727 26.9043 54.9857 27.0473 55.2056C27.1031 55.2948 27.181 55.3681 27.2735 55.4186C27.3661 55.469 27.47 55.4949 27.5755 55.4937C27.7178 55.4993 27.858 55.4583 27.9747 55.3771C28.0962 55.2835 28.1971 55.1659 28.2711 55.0318L28.4264 55.1342C28.3258 55.3201 28.1794 55.4774 28.001 55.5913C27.8368 55.7007 27.6439 55.7595 27.4464 55.7604Z" fill="white"/>
<path d="M30.0958 55.5892C29.9906 55.632 29.8902 55.6701 29.7946 55.6987C29.6822 55.7318 29.5653 55.7471 29.4481 55.7439C29.3698 55.7527 29.2906 55.7436 29.2164 55.7171C29.1423 55.6907 29.0752 55.6478 29.0202 55.5916C28.9306 55.4663 28.8868 55.3142 28.896 55.1606V53.532H28.4609V53.2939H28.9007V52.5439H29.3477V53.2939H30.0408V53.532H29.3524V54.8749C29.3509 54.9592 29.3549 55.0435 29.3644 55.1273C29.3696 55.189 29.3875 55.249 29.417 55.3035C29.4426 55.3514 29.4839 55.3893 29.5341 55.4106C29.6009 55.4371 29.6726 55.4493 29.7445 55.4463C29.7851 55.4463 29.8448 55.4463 29.9237 55.4463C29.9804 55.4434 30.0366 55.4338 30.091 55.4178L30.0958 55.5892Z" fill="white"/>
<path d="M32.9263 55.651L32.1376 55.7057L32.1017 55.6724V55.3676H32.0874C32.0468 55.4081 32.0037 55.451 31.9535 55.4962C31.9029 55.5446 31.8467 55.587 31.7862 55.6224C31.7196 55.664 31.6481 55.6976 31.5735 55.7224C31.4788 55.7497 31.3804 55.7618 31.2819 55.7581C31.1915 55.7619 31.1014 55.7449 31.0185 55.7086C30.9356 55.6723 30.8622 55.6176 30.8039 55.5486C30.6812 55.3716 30.6222 55.1584 30.6366 54.9438V53.7938C30.6383 53.7426 30.6268 53.6918 30.6032 53.6462C30.5798 53.6037 30.5461 53.5677 30.5051 53.5415C30.4714 53.5207 30.4341 53.5062 30.3952 53.4986C30.3486 53.4896 30.3015 53.4832 30.2542 53.4795V53.32L31.0596 53.2605L31.0979 53.2962V54.9629C31.0867 55.1045 31.1284 55.2453 31.215 55.3581C31.2495 55.3991 31.2927 55.4321 31.3414 55.4547C31.3902 55.4774 31.4433 55.4891 31.4971 55.4891C31.5787 55.4902 31.6599 55.4757 31.7361 55.4462C31.7997 55.423 31.8594 55.3901 31.9129 55.3486C31.9545 55.3166 31.9929 55.2807 32.0277 55.2414C32.0574 55.2084 32.0838 55.1725 32.1065 55.1343V53.7724C32.1072 53.7225 32.0948 53.6733 32.0707 53.6295C32.0474 53.5877 32.0147 53.5518 31.9751 53.5248C31.9349 53.5023 31.8897 53.49 31.8436 53.4891L31.65 53.4772V53.3176L32.5295 53.2581L32.5654 53.2938V55.1986C32.5639 55.2478 32.5763 55.2965 32.6013 55.3391C32.6233 55.3805 32.6563 55.4151 32.6968 55.4391C32.7286 55.459 32.7647 55.4713 32.802 55.4748C32.8464 55.4814 32.891 55.4854 32.9358 55.4867L32.9263 55.651Z" fill="white"/>
<path d="M35.0733 53.601C35.0743 53.6785 35.0528 53.7546 35.0112 53.82C34.9914 53.8517 34.9635 53.8775 34.9302 53.8947C34.897 53.9119 34.8597 53.9198 34.8224 53.9177C34.7847 53.9202 34.7468 53.9152 34.7111 53.903C34.6754 53.8907 34.6425 53.8714 34.6144 53.8462C34.5919 53.827 34.5737 53.8033 34.5609 53.7766C34.5482 53.75 34.5412 53.721 34.5403 53.6915C34.5365 53.659 34.5365 53.6263 34.5403 53.5938C34.5403 53.5629 34.5403 53.5343 34.557 53.5058C34.4602 53.5119 34.3669 53.544 34.287 53.5986C34.1796 53.6638 34.0895 53.7536 34.024 53.8605V55.2605C34.0223 55.3095 34.0339 55.358 34.0575 55.401C34.0826 55.4388 34.1196 55.4673 34.1627 55.4819C34.2134 55.501 34.2664 55.513 34.3204 55.5177C34.3849 55.5177 34.44 55.5319 34.4878 55.5343V55.6962H33.2138V55.5343H33.3309C33.3659 55.5323 33.4004 55.5259 33.4337 55.5153C33.4759 55.5028 33.5123 55.4758 33.5364 55.4391C33.5598 55.3951 33.5713 55.3459 33.5699 55.2962V53.8034C33.5697 53.7513 33.5574 53.7 33.5341 53.6534C33.5114 53.6064 33.4768 53.5662 33.4337 53.5367C33.3997 53.5163 33.3626 53.5019 33.3238 53.4938C33.2788 53.4848 33.2332 53.4785 33.1875 53.4748V53.3153L33.9906 53.2605L34.024 53.2962V53.6343H34.036C34.1278 53.5127 34.2432 53.4107 34.3754 53.3343C34.4779 53.2719 34.5948 53.2366 34.7148 53.2319C34.7593 53.2318 34.8034 53.2406 34.8445 53.2578C34.8855 53.2749 34.9227 53.3002 34.9538 53.3319C34.9912 53.3662 35.0211 53.4078 35.0416 53.4541C35.0622 53.5004 35.073 53.5504 35.0733 53.601Z" fill="white"/>
<path d="M37.4235 55.1296C37.3311 55.3129 37.1949 55.4707 37.0268 55.5892C36.8538 55.7046 36.6494 55.7644 36.4412 55.7606C36.2661 55.7636 36.0923 55.7287 35.9321 55.6582C35.7919 55.5941 35.6684 55.4988 35.5712 55.3796C35.4738 55.2584 35.4016 55.1193 35.3585 54.9701C35.3109 54.8094 35.2875 54.6425 35.2891 54.4749C35.2888 54.3179 35.3139 54.162 35.3632 54.013C35.4109 53.8657 35.4854 53.7285 35.5831 53.6082C35.6772 53.491 35.7953 53.3952 35.9297 53.3273C36.0737 53.2561 36.2327 53.2202 36.3934 53.2225C36.5483 53.2175 36.7023 53.2459 36.8451 53.3058C36.9658 53.359 37.0717 53.4407 37.1534 53.5439C37.2296 53.6392 37.2864 53.7484 37.3207 53.8654C37.358 53.9962 37.3765 54.1317 37.3757 54.2677V54.4296H35.7767C35.7749 54.5746 35.7902 54.7192 35.8221 54.8606C35.8475 54.9815 35.8962 55.0963 35.9656 55.1987C36.0245 55.2926 36.1068 55.3697 36.2046 55.4225C36.3184 55.4804 36.4449 55.509 36.5727 55.5058C36.7052 55.5098 36.8358 55.4741 36.9479 55.4034C37.078 55.3075 37.1829 55.1817 37.2538 55.0368L37.4235 55.1296ZM36.8809 54.213C36.8807 54.1149 36.8728 54.0169 36.8571 53.9201C36.8458 53.8303 36.8208 53.7428 36.783 53.6606C36.7468 53.5879 36.6935 53.525 36.6276 53.4773C36.5566 53.4312 36.4734 53.4071 36.3886 53.4082C36.3055 53.4072 36.2234 53.4258 36.149 53.4627C36.0746 53.4995 36.0101 53.5535 35.9608 53.6201C35.838 53.7934 35.7736 54.0009 35.7767 54.213H36.8809Z" fill="white"/>
<path d="M42.2982 53.6842C42.1992 53.694 42.1015 53.7139 42.0066 53.7438C41.9187 53.7659 41.8401 53.815 41.7819 53.8842C41.739 53.9371 41.7036 53.9956 41.6767 54.0581C41.6409 54.1342 41.6003 54.2247 41.5501 54.3295C41.4999 54.4342 41.4521 54.5366 41.4019 54.6366C41.3477 54.7442 41.282 54.8456 41.2059 54.939C41.2803 55.0287 41.3601 55.1138 41.4449 55.1938C41.5167 55.2693 41.5969 55.3364 41.6839 55.3938C41.7714 55.4383 41.8647 55.4703 41.9612 55.489C42.0577 55.512 42.1561 55.5263 42.2552 55.5319V55.7057H41.2465L40.8832 55.2914C40.8282 55.3485 40.7661 55.4104 40.6968 55.4723C40.6294 55.5338 40.5557 55.5881 40.4769 55.6342C40.3966 55.6826 40.3108 55.7209 40.2212 55.7485C40.1238 55.7787 40.0221 55.7932 39.92 55.7914C39.7979 55.7905 39.6765 55.7729 39.5591 55.739C39.4412 55.7043 39.3309 55.6478 39.2341 55.5723C39.1334 55.4957 39.0517 55.3971 38.995 55.2842C38.9327 55.1527 38.9024 55.0083 38.9066 54.8628C38.9044 54.6685 38.9601 54.4779 39.0668 54.3152C39.2282 54.1033 39.4315 53.9266 39.6643 53.7961C39.5535 53.6509 39.4506 53.4999 39.356 53.3438C39.2814 53.2142 39.2434 53.0669 39.246 52.9176C39.2441 52.8107 39.267 52.7047 39.313 52.608C39.3599 52.5166 39.4249 52.4356 39.5042 52.37C39.5848 52.3027 39.6783 52.2525 39.779 52.2223C39.8841 52.1852 39.9949 52.1667 40.1064 52.1676C40.2241 52.1659 40.341 52.1869 40.4506 52.2295C40.5405 52.2667 40.6218 52.3218 40.6897 52.3914C40.747 52.4533 40.7909 52.5262 40.8187 52.6057C40.8477 52.6818 40.8631 52.7624 40.8641 52.8438C40.8684 53.0279 40.8036 53.207 40.6825 53.3462C40.542 53.5048 40.3714 53.6343 40.1805 53.7271C40.3359 53.9342 40.4841 54.1223 40.6323 54.2914C40.7805 54.4604 40.9191 54.6295 41.0553 54.7938C41.1547 54.6375 41.2395 54.4726 41.3087 54.3009C41.3635 54.1727 41.3943 54.0355 41.3995 53.8962C41.3995 53.8438 41.3613 53.8009 41.2848 53.7723C41.1832 53.734 41.0784 53.7045 40.9717 53.6842V53.5128H42.2814L42.2982 53.6842ZM40.7566 55.1485C40.606 54.9581 40.4339 54.7461 40.2451 54.5176C40.0563 54.289 39.9009 54.0961 39.7862 53.939C39.6647 54.018 39.5678 54.1294 39.5066 54.2604C39.4497 54.3935 39.422 54.5372 39.4253 54.6819C39.4184 54.8821 39.4856 55.0778 39.6141 55.2319C39.6773 55.3036 39.7558 55.3603 39.8439 55.3978C39.932 55.4353 40.0275 55.4526 40.1232 55.4485C40.2445 55.4489 40.3644 55.423 40.4745 55.3723C40.5872 55.3202 40.6845 55.2398 40.7566 55.139V55.1485ZM40.5654 52.8914C40.5747 52.7555 40.5358 52.6207 40.4554 52.5104C40.4171 52.4656 40.3689 52.4303 40.3146 52.4071C40.2602 52.384 40.2013 52.3737 40.1423 52.3771C40.0762 52.3752 40.0108 52.3917 39.9535 52.4247C39.9034 52.4551 39.8596 52.4947 39.8244 52.5414C39.7916 52.5849 39.7673 52.6342 39.7527 52.6866C39.7394 52.7323 39.7322 52.7795 39.7312 52.8271C39.7328 52.946 39.7631 53.0628 39.8196 53.1676C39.8985 53.3131 39.9897 53.4517 40.0921 53.5819C40.2353 53.5096 40.3596 53.4053 40.4554 53.2771C40.5324 53.1599 40.5708 53.0218 40.5654 52.8819V52.8914Z" fill="white"/>
<path d="M45.2687 55.6962H43.7031V55.5224L43.8943 55.5081C43.9542 55.5049 44.0135 55.4954 44.0712 55.4795C44.1186 55.4631 44.1595 55.4323 44.1883 55.3914C44.215 55.3453 44.2275 55.2923 44.2242 55.2391V52.7319C44.2266 52.6829 44.2176 52.634 44.1979 52.5891C44.1691 52.5421 44.124 52.5074 44.0712 52.4914C44.0104 52.4689 43.9481 52.4506 43.8848 52.4367C43.8251 52.4222 43.7644 52.4126 43.7031 52.4081V52.2343H45.2687V52.4081C45.2078 52.4097 45.1471 52.4153 45.087 52.4248C45.0248 52.434 44.9633 52.4475 44.903 52.4653C44.8767 52.4716 44.8521 52.4834 44.8307 52.4998C44.8093 52.5162 44.7916 52.5369 44.7787 52.5605C44.7564 52.6065 44.745 52.657 44.7452 52.7081V55.2129C44.744 55.2628 44.7564 55.3122 44.7811 55.3557C44.8096 55.401 44.8525 55.4353 44.903 55.4533C44.9572 55.4729 45.0132 55.4873 45.0703 55.4962C45.1355 55.5104 45.2019 55.5192 45.2687 55.5224V55.6962Z" fill="white"/>
<path d="M48.3065 55.6962H47.1258V55.5343H47.2501C47.2882 55.5329 47.326 55.5265 47.3624 55.5153C47.4043 55.5032 47.44 55.476 47.4628 55.4391C47.4872 55.3955 47.4989 55.346 47.4963 55.2962V54.0581C47.5057 53.9159 47.4623 53.7753 47.3744 53.6629C47.339 53.6192 47.2942 53.5842 47.2433 53.5602C47.1923 53.5363 47.1367 53.5242 47.0804 53.5248C46.9989 53.5229 46.9177 53.5366 46.8414 53.5653C46.7737 53.5896 46.7095 53.6224 46.6502 53.6629C46.6006 53.6958 46.557 53.7369 46.5211 53.7843C46.49 53.8272 46.4661 53.8629 46.4518 53.8867V55.27C46.4501 55.3182 46.4617 55.366 46.4853 55.4081C46.5103 55.4455 46.5461 55.4746 46.588 55.4914C46.6236 55.5086 46.6614 55.5207 46.7004 55.5272C46.7412 55.5365 46.7828 55.5421 46.8246 55.5438V55.7057H45.632V55.5438H45.7467C45.7824 55.5418 45.8177 55.5354 45.8519 55.5248C45.8937 55.5127 45.9295 55.4856 45.9523 55.4486C45.9767 55.4051 45.9883 55.3555 45.9857 55.3057V53.8033C45.9866 53.7504 45.9743 53.698 45.9499 53.651C45.928 53.6048 45.8942 53.5654 45.8519 53.5367C45.8177 53.5167 45.7806 53.5023 45.7419 53.4938C45.6961 53.4847 45.6498 53.4783 45.6033 53.4748V53.3153L46.4064 53.2605L46.4422 53.2962V53.6343H46.4542L46.6 53.4938C46.6524 53.4454 46.7083 53.4008 46.7673 53.3605C46.8344 53.3187 46.9067 53.2858 46.9824 53.2629C47.0739 53.2359 47.169 53.2231 47.2644 53.2248C47.3616 53.2171 47.4592 53.2328 47.549 53.2705C47.6389 53.3082 47.7183 53.3668 47.7807 53.4414C47.8991 53.6088 47.9579 53.8108 47.948 54.0153V55.2676C47.946 55.3146 47.9559 55.3612 47.9767 55.4033C47.999 55.4423 48.0346 55.4719 48.0771 55.4867C48.1104 55.5004 48.1448 55.5115 48.1798 55.52C48.2183 55.5285 48.2575 55.5333 48.2969 55.5343L48.3065 55.6962Z" fill="white"/>
<path d="M50.0938 55.5892C49.9886 55.632 49.8882 55.6701 49.7926 55.6987C49.6802 55.7318 49.5633 55.7471 49.4461 55.7439C49.3678 55.7524 49.2887 55.743 49.2146 55.7167C49.1405 55.6903 49.0734 55.6475 49.0182 55.5916C48.9286 55.4663 48.8848 55.3142 48.8939 55.1606V53.532H48.459V53.2939H48.9035V52.5439H49.3505V53.2939H50.0436V53.532H49.3553V54.8749C49.3549 54.9592 49.3589 55.0434 49.3672 55.1273C49.3724 55.189 49.3903 55.249 49.4198 55.3035C49.4454 55.3514 49.4868 55.3893 49.5369 55.4106C49.6037 55.4371 49.6754 55.4493 49.7472 55.4463C49.7879 55.4463 49.8476 55.4463 49.9265 55.4463C49.9832 55.4434 50.0393 55.4338 50.0938 55.4178V55.5892Z" fill="white"/>
<path d="M52.4825 55.1296C52.3895 55.3125 52.2534 55.4702 52.0857 55.5891C51.9125 55.704 51.7083 55.7638 51.5002 55.7605C51.3242 55.7638 51.1496 55.7289 50.9886 55.6581C50.8485 55.5941 50.725 55.4988 50.6277 55.3796C50.5313 55.2578 50.4591 55.1188 50.415 54.9701C50.3686 54.8091 50.3453 54.6423 50.3457 54.4748C50.3454 54.3179 50.3704 54.1619 50.4198 54.0129C50.4685 53.8661 50.5429 53.729 50.6397 53.6082C50.7337 53.4909 50.8519 53.3951 50.9862 53.3272C51.1303 53.2563 51.2893 53.2204 51.45 53.2224C51.6056 53.2177 51.7604 53.2461 51.9041 53.3058C52.0237 53.3597 52.1286 53.4413 52.21 53.5439C52.2871 53.6386 52.344 53.7479 52.3773 53.8653C52.4146 53.9962 52.4331 54.1316 52.4323 54.2677V54.4296H50.8333C50.8315 54.5745 50.8467 54.7191 50.8787 54.8605C50.9053 54.981 50.9539 55.0956 51.0221 55.1986C51.081 55.2926 51.1634 55.3697 51.2611 55.4224C51.375 55.4803 51.5015 55.509 51.6292 55.5058C51.7618 55.5097 51.8924 55.474 52.0044 55.4034C52.1345 55.3075 52.2395 55.1817 52.3104 55.0367L52.4825 55.1296ZM51.9399 54.2129C51.9397 54.1148 51.9317 54.0169 51.916 53.9201C51.9059 53.8301 51.8809 53.7424 51.8419 53.6605C51.8066 53.588 51.7541 53.5251 51.689 53.4772C51.6136 53.429 51.5252 53.4049 51.4356 53.4082C51.3525 53.4071 51.2704 53.4258 51.196 53.4626C51.1216 53.4995 51.0571 53.5534 51.0078 53.6201C50.885 53.7933 50.8206 54.0009 50.8237 54.2129H51.9399Z" fill="white"/>
<path d="M54.61 53.601C54.6119 53.6782 54.5911 53.7544 54.5502 53.82C54.5301 53.8514 54.5021 53.8769 54.469 53.8941C54.4358 53.9112 54.3987 53.9193 54.3614 53.9177C54.3233 53.9204 54.2851 53.9155 54.249 53.9032C54.2128 53.891 54.1795 53.8716 54.1511 53.8462C54.1292 53.8266 54.1116 53.8028 54.0993 53.7762C54.087 53.7496 54.0802 53.7208 54.0794 53.6915C54.0768 53.659 54.0768 53.6263 54.0794 53.5938C54.0794 53.5629 54.0913 53.5343 54.0961 53.5058C53.9994 53.5122 53.9062 53.5443 53.826 53.5986C53.7195 53.6639 53.6301 53.7537 53.5655 53.8605V55.2605C53.5631 55.3093 53.5739 55.3578 53.5966 55.401C53.6222 55.4384 53.659 55.4667 53.7017 55.4819C53.7524 55.501 53.8055 55.513 53.8595 55.5177C53.924 55.5177 53.979 55.5319 54.0268 55.5343V55.6962H52.7553V55.5343H52.87C52.9057 55.5323 52.941 55.5259 52.9751 55.5153C53.017 55.5032 53.0528 55.4761 53.0755 55.4391C53.0989 55.3951 53.1104 55.3459 53.109 55.2962V53.8034C53.1088 53.7513 53.0965 53.7 53.0731 53.6534C53.0506 53.607 53.017 53.5669 52.9751 53.5367C52.941 53.5168 52.9039 53.5023 52.8652 53.4938C52.8194 53.4847 52.7731 53.4783 52.7266 53.4748V53.3153L53.5297 53.2605L53.5655 53.2962V53.6343H53.5775C53.6678 53.5122 53.7825 53.4101 53.9144 53.3343C54.0179 53.2721 54.1355 53.2368 54.2563 53.2319C54.3008 53.2318 54.3449 53.2406 54.3859 53.2578C54.427 53.2749 54.4642 53.3002 54.4953 53.3319C54.5318 53.3666 54.5608 53.4084 54.5805 53.4547C54.6003 53.5009 54.6103 53.5507 54.61 53.601Z" fill="white"/>
<path d="M55.987 55.6962H54.8206V55.5343H54.9377C54.9727 55.5325 55.0073 55.5261 55.0405 55.5152C55.0833 55.5039 55.1201 55.4767 55.1433 55.439C55.1666 55.3951 55.1781 55.3459 55.1767 55.2962V53.8033C55.1774 53.7534 55.165 53.7042 55.1409 53.6605C55.1167 53.6165 55.0823 53.5789 55.0405 53.5509C54.999 53.5271 54.9537 53.5102 54.9067 53.5009C54.8532 53.4881 54.7989 53.4794 54.7441 53.4747V53.3152L55.5974 53.2605L55.6309 53.2962V55.2557C55.6295 55.3054 55.641 55.3546 55.6643 55.3986C55.6881 55.4371 55.7243 55.4665 55.7671 55.4819L55.8723 55.5176C55.91 55.5262 55.9484 55.5318 55.987 55.5343V55.6962ZM55.6715 52.3128C55.6703 52.4004 55.6382 52.4847 55.5807 52.5509C55.5529 52.5824 55.5186 52.6075 55.4803 52.6247C55.442 52.642 55.4004 52.6509 55.3584 52.6509C55.3163 52.6509 55.2748 52.642 55.2365 52.6247C55.1981 52.6075 55.1639 52.5824 55.1361 52.5509C55.0768 52.4904 55.0434 52.4093 55.0429 52.3247C55.0413 52.2362 55.0747 52.1507 55.1361 52.0866C55.163 52.0553 55.1963 52.0302 55.2338 52.013C55.2714 51.9957 55.3122 51.9867 55.3536 51.9867C55.396 51.9857 55.4382 51.9937 55.4773 52.0101C55.5165 52.0265 55.5517 52.051 55.5807 52.0819C55.6111 52.112 55.6349 52.1481 55.6505 52.1878C55.6662 52.2276 55.6733 52.2702 55.6715 52.3128Z" fill="white"/>
<path d="M58.6413 54.4676C58.6416 54.6376 58.6142 54.8065 58.5601 54.9676C58.5086 55.1208 58.4274 55.2624 58.3211 55.3843C58.213 55.5092 58.0782 55.6085 57.9267 55.6748C57.7682 55.7394 57.5984 55.7718 57.4272 55.77C57.2768 55.7709 57.1279 55.741 56.9898 55.6819C56.8496 55.6252 56.7232 55.5391 56.6193 55.4295C56.5087 55.315 56.4218 55.1798 56.3635 55.0319C56.2992 54.8632 56.2676 54.6838 56.2703 54.5033C56.2568 54.1646 56.3749 53.8337 56.6001 53.5795C56.8244 53.354 57.1289 53.2257 57.4476 53.2226C57.7663 53.2194 58.0733 53.3417 58.3019 53.5629C58.416 53.6836 58.5048 53.8259 58.5631 53.9812C58.6213 54.1366 58.6479 54.3019 58.6413 54.4676ZM58.1346 54.4676C58.1332 54.3374 58.1203 54.2076 58.0964 54.0795C58.0776 53.9595 58.0405 53.8431 57.9864 53.7343C57.9365 53.6407 57.8663 53.5594 57.7809 53.4962C57.6891 53.4332 57.5792 53.4014 57.4678 53.4057C57.3532 53.4029 57.2405 53.4353 57.1451 53.4986C57.0536 53.5637 56.9797 53.6504 56.93 53.751C56.8745 53.8577 56.8366 53.9727 56.8177 54.0914C56.7982 54.2127 56.7878 54.3353 56.7866 54.4581C56.7851 54.6035 56.7979 54.7486 56.8249 54.8914C56.8476 55.0151 56.8887 55.1346 56.9468 55.2462C56.9965 55.3413 57.0687 55.423 57.1571 55.4843C57.2483 55.5467 57.3572 55.5784 57.4678 55.5748C57.5668 55.573 57.6634 55.5446 57.7476 55.4927C57.8317 55.4407 57.9002 55.3671 57.9458 55.2795C58.0795 55.0328 58.1447 54.755 58.1346 54.4748V54.4676Z" fill="white"/>
<path d="M60.8385 53.601C60.8407 53.6787 60.819 53.7551 60.7764 53.8201C60.757 53.8516 60.7295 53.8773 60.6967 53.8945C60.6638 53.9117 60.627 53.9197 60.5899 53.9177C60.5519 53.9205 60.5136 53.9156 60.4774 53.9033C60.4413 53.891 60.408 53.8716 60.3796 53.8463C60.3577 53.8266 60.3401 53.8028 60.3278 53.7762C60.3155 53.7496 60.3087 53.7208 60.3079 53.6915C60.3052 53.659 60.3052 53.6264 60.3079 53.5939C60.3079 53.5629 60.3198 53.5344 60.3246 53.5058C60.2279 53.5123 60.1347 53.5443 60.0546 53.5987C59.948 53.664 59.8586 53.7538 59.794 53.8606V55.2606C59.7916 55.3093 59.8023 55.3578 59.8251 55.401C59.8507 55.4384 59.8875 55.4667 59.9303 55.482C59.981 55.501 60.034 55.513 60.088 55.5177C60.1525 55.5177 60.2075 55.532 60.2553 55.5344V55.6963H58.9814V55.5344H59.0985C59.1342 55.5324 59.1695 55.526 59.2037 55.5153C59.2455 55.5033 59.2813 55.4761 59.304 55.4391C59.3274 55.3952 59.3389 55.346 59.3375 55.2963V53.8034C59.3373 53.7513 59.325 53.7 59.3016 53.6534C59.2791 53.6071 59.2455 53.567 59.2037 53.5368C59.1688 53.5164 59.1309 53.502 59.0913 53.4939C59.0464 53.4846 59.0009 53.4782 58.9551 53.4748V53.3153L59.7582 53.2606L59.794 53.2963V53.6344C59.8844 53.5123 59.9991 53.4102 60.131 53.3344C60.2337 53.2725 60.3505 53.2373 60.4704 53.232C60.5173 53.23 60.5641 53.2379 60.6078 53.2551C60.6514 53.2724 60.6909 53.2986 60.7237 53.332C60.7602 53.3667 60.7893 53.4085 60.809 53.4547C60.8287 53.501 60.8388 53.5508 60.8385 53.601Z" fill="white"/>
<path d="M65.6463 53.9866C65.6521 54.251 65.5948 54.513 65.479 54.7509C65.3761 54.9583 65.2283 55.1405 65.0463 55.2842C64.8642 55.4228 64.6586 55.5277 64.4392 55.5938C64.2155 55.6625 63.9826 55.697 63.7485 55.6962H62.3145V55.5223C62.376 55.5213 62.4375 55.5166 62.4985 55.5081C62.5497 55.5049 62.6003 55.4953 62.649 55.4795C62.6954 55.4619 62.7336 55.428 62.7566 55.3843C62.7799 55.3378 62.7915 55.2862 62.7901 55.2343V52.7319C62.7907 52.6805 62.7809 52.6294 62.7614 52.5819C62.7384 52.5342 62.6983 52.4968 62.649 52.4771C62.5972 52.4533 62.5426 52.4357 62.4865 52.4247C62.4361 52.4141 62.385 52.4069 62.3335 52.4033V52.2295H63.8513C64.0613 52.2291 64.2702 52.2613 64.4703 52.3247C64.6588 52.3835 64.837 52.4711 64.9985 52.5843C65.2024 52.7319 65.3666 52.9274 65.4766 53.1533C65.5966 53.4144 65.6546 53.6996 65.6463 53.9866ZM65.0463 53.9866C65.0492 53.7727 65.0178 53.5597 64.9531 53.3557C64.8948 53.1763 64.8022 53.0098 64.6806 52.8652C64.567 52.7312 64.4249 52.6239 64.2648 52.5509C64.0931 52.4729 63.9061 52.4339 63.7174 52.4366H63.4784H63.292V55.1128C63.2855 55.1707 63.294 55.2293 63.3166 55.2831C63.3392 55.3368 63.3751 55.3839 63.421 55.42C63.5433 55.4856 63.6817 55.5153 63.8202 55.5057C64.0078 55.5103 64.194 55.4729 64.3651 55.3962C64.514 55.3266 64.6436 55.222 64.7428 55.0914C64.8461 54.9482 64.9207 54.7865 64.9627 54.6152C65.0179 54.4094 65.046 54.1973 65.0463 53.9843V53.9866Z" fill="white"/>
<path d="M68.1561 55.1295C68.0619 55.3145 67.9221 55.4727 67.7498 55.5891C67.5767 55.7042 67.3724 55.764 67.1642 55.7605C66.9883 55.7632 66.8139 55.7283 66.6527 55.6581C66.5129 55.5934 66.3896 55.4982 66.2918 55.3795C66.1961 55.2576 66.1248 55.1186 66.0815 54.97C66.0331 54.8094 66.009 54.6425 66.0098 54.4748C66.0103 54.3177 66.0361 54.1618 66.0863 54.0129C66.1331 53.8657 66.2068 53.7285 66.3038 53.6081C66.3983 53.4914 66.5164 53.3957 66.6503 53.3272C66.7953 53.2562 66.9549 53.2204 67.1164 53.2224C67.2712 53.2179 67.4252 53.2463 67.5681 53.3057C67.6881 53.359 67.7932 53.4407 67.8741 53.5438C67.9521 53.6379 68.0091 53.7475 68.0414 53.8652C68.0798 53.9959 68.0983 54.1315 68.0963 54.2676V54.4295H66.4974C66.4968 54.5744 66.512 54.7189 66.5428 54.8605C66.5704 54.9807 66.619 55.0951 66.6862 55.1986C66.7459 55.2918 66.8281 55.3688 66.9252 55.4224C67.0383 55.48 67.164 55.5086 67.2909 55.5057C67.4242 55.5097 67.5556 55.4741 67.6685 55.4033C67.7978 55.3072 67.9019 55.1814 67.9721 55.0367L68.1561 55.1295ZM67.6159 54.2129C67.6145 54.1148 67.6065 54.017 67.592 53.92C67.5798 53.8304 67.5549 53.7431 67.518 53.6605C67.481 53.5883 67.4278 53.5255 67.3626 53.4772C67.2874 53.4284 67.1989 53.4043 67.1093 53.4081C67.0265 53.4071 66.9447 53.4257 66.8707 53.4626C66.7967 53.4995 66.7326 53.5534 66.6838 53.62C66.5593 53.7925 66.4939 54.0004 66.4974 54.2129H67.6159Z" fill="white"/>
<path d="M70.0311 54.5175C70.0962 54.5737 70.149 54.6426 70.1864 54.7199C70.2244 54.8086 70.2423 54.9045 70.239 55.0009C70.2431 55.1038 70.2238 55.2064 70.1824 55.3009C70.141 55.3953 70.0786 55.4792 70 55.5461C69.8537 55.6562 69.6813 55.7268 69.4995 55.751C69.3178 55.7752 69.1329 55.7522 68.9627 55.6842C68.8714 55.6493 68.7853 55.602 68.7069 55.5437L68.6591 55.7032H68.4751L68.4512 54.8651H68.6209C68.6384 54.9428 68.6658 55.018 68.7021 55.089C68.7436 55.1746 68.7958 55.2546 68.8575 55.3271C68.9265 55.4002 69.0073 55.4613 69.0965 55.508C69.1883 55.5572 69.291 55.5825 69.3953 55.5818C69.5253 55.5901 69.654 55.5521 69.7586 55.4747C69.8012 55.4366 69.8348 55.3894 69.8568 55.3366C69.8787 55.2839 69.8884 55.2269 69.8852 55.1699C69.8876 55.1079 69.8736 55.0463 69.8446 54.9913C69.8157 54.9396 69.7757 54.8949 69.7275 54.8604C69.6647 54.8209 69.5983 54.7874 69.5291 54.7604C69.4502 54.7294 69.3618 54.7009 69.2662 54.6699C69.1789 54.6447 69.0935 54.6137 69.0105 54.577C68.9247 54.5413 68.8443 54.494 68.7715 54.4366C68.6989 54.3793 68.6388 54.3081 68.5946 54.2271C68.5471 54.1368 68.5232 54.0361 68.5253 53.9342C68.5238 53.8398 68.5429 53.7462 68.5813 53.6599C68.6197 53.5735 68.6764 53.4965 68.7475 53.4342C68.9096 53.2912 69.1217 53.2176 69.3379 53.2294C69.4354 53.2299 69.5324 53.2418 69.6271 53.2651C69.7101 53.2845 69.7904 53.3141 69.8661 53.3532L69.9235 53.2271H70.098L70.1362 54.0009H69.9665C69.9395 53.8397 69.8616 53.6912 69.7442 53.577C69.6894 53.5242 69.6247 53.4828 69.5537 53.455C69.4828 53.4272 69.4069 53.4136 69.3307 53.4151C69.2167 53.4082 69.1043 53.4439 69.0153 53.5151C68.9791 53.5436 68.9498 53.5797 68.9295 53.6209C68.9093 53.6621 68.8986 53.7074 68.8982 53.7532C68.8965 53.8165 68.9096 53.8792 68.9364 53.9366C68.9633 53.9869 69.0028 54.0296 69.0511 54.0604C69.1086 54.0984 69.1703 54.1296 69.2351 54.1532C69.3092 54.1818 69.4024 54.2128 69.5124 54.2485C69.6157 54.2824 69.7171 54.3221 69.8159 54.3675C69.8934 54.4087 69.9657 54.4591 70.0311 54.5175Z" fill="white"/>
<path d="M71.7741 55.6963H70.6077V55.5343H70.7249C70.7598 55.5324 70.7943 55.526 70.8276 55.5153C70.8695 55.5033 70.9053 55.4761 70.928 55.4391C70.9525 55.3956 70.9641 55.3461 70.9615 55.2963V53.8034C70.9622 53.7535 70.9498 53.7043 70.9257 53.6605C70.9031 53.6162 70.8693 53.5784 70.8276 53.551C70.7857 53.5279 70.7406 53.5111 70.6938 53.501C70.6403 53.4884 70.586 53.4796 70.5312 53.4748V53.3153L71.3845 53.2605L71.418 53.2962V55.2558C71.4166 55.3055 71.4281 55.3547 71.4515 55.3986C71.4747 55.4377 71.5111 55.4673 71.5542 55.482C71.5885 55.496 71.6236 55.5079 71.6594 55.5177C71.6971 55.5263 71.7355 55.5318 71.7741 55.5343V55.6963ZM71.4658 52.3129C71.4657 52.4007 71.4334 52.4853 71.375 52.551C71.3472 52.5839 71.3124 52.6101 71.2731 52.6278C71.2338 52.6455 71.191 52.6543 71.1479 52.6534C71.1071 52.6534 71.0668 52.6447 71.0297 52.6279C70.9926 52.6111 70.9596 52.5865 70.9328 52.5558C70.8735 52.4953 70.84 52.4142 70.8396 52.3296C70.8379 52.2411 70.8715 52.1555 70.9328 52.0915C70.9591 52.0601 70.992 52.0349 71.0292 52.0176C71.0663 52.0003 71.1069 51.9914 71.1479 51.9915C71.1896 51.9909 71.2311 51.9985 71.2698 52.0141C71.3085 52.0296 71.3437 52.0527 71.3733 52.082C71.4029 52.1112 71.4263 52.1461 71.4422 52.1846C71.4581 52.223 71.4661 52.2642 71.4658 52.3058V52.3129Z" fill="white"/>
<path d="M74.1419 55.4461C74.2064 55.5066 74.259 55.5784 74.2972 55.658C74.3382 55.7484 74.3579 55.8469 74.3546 55.9461C74.3554 56.0593 74.3292 56.1711 74.2782 56.2723C74.2221 56.379 74.1399 56.47 74.0391 56.5366C73.9191 56.6185 73.7856 56.679 73.6447 56.7151C73.4613 56.762 73.2724 56.7836 73.0831 56.7794C72.8006 56.7976 72.5181 56.7427 72.2632 56.6199C72.1772 56.5744 72.1059 56.5055 72.0577 56.4212C72.0094 56.3369 71.9862 56.2407 71.9908 56.1437C71.9878 56.0671 72.0042 55.991 72.0384 55.9223C72.0727 55.8537 72.1237 55.7947 72.1868 55.7509C72.3328 55.6479 72.5074 55.5929 72.6863 55.5937V55.5604C72.6361 55.5437 72.5859 55.527 72.5334 55.5056C72.4855 55.4853 72.4405 55.4589 72.3995 55.427C72.3578 55.3944 72.3229 55.3539 72.2967 55.308C72.2694 55.2542 72.2562 55.1944 72.2585 55.1342C72.2586 55.0464 72.2909 54.9618 72.3493 54.8961C72.4263 54.8139 72.5211 54.7504 72.6265 54.7104V54.6747C72.484 54.6112 72.3593 54.5139 72.2632 54.3913C72.1755 54.2775 72.1291 54.1373 72.1318 53.9937C72.1335 53.8882 72.1585 53.7844 72.2052 53.6897C72.2519 53.595 72.3191 53.5118 72.4019 53.4461C72.5869 53.2958 72.8206 53.2179 73.0592 53.227C73.1322 53.2271 73.205 53.2343 73.2767 53.2485C73.3518 53.2633 73.426 53.2824 73.499 53.3056H74.3403V53.5437H73.7738V53.558C73.8334 53.628 73.8788 53.7089 73.9077 53.7961C73.9353 53.8726 73.9507 53.9529 73.9531 54.0342C73.9532 54.1376 73.9299 54.2398 73.8847 54.333C73.8396 54.4262 73.7739 54.508 73.6925 54.5723C73.5262 54.716 73.3128 54.794 73.0926 54.7913H72.7962C72.7531 54.8067 72.7134 54.8301 72.6791 54.8604C72.6588 54.8776 72.6427 54.8992 72.6319 54.9235C72.6212 54.9478 72.616 54.9743 72.617 55.0009C72.6155 55.0261 72.6192 55.0513 72.6278 55.075C72.6365 55.0988 72.6499 55.1205 72.6672 55.1389C72.7034 55.1705 72.7469 55.1926 72.7938 55.2032C72.8478 55.2168 72.9032 55.2248 72.9588 55.227C73.0209 55.227 73.0854 55.227 73.1524 55.227L73.4487 55.2413L73.7141 55.258C73.7965 55.259 73.8778 55.2769 73.9531 55.3104C74.0232 55.3447 74.0871 55.3906 74.1419 55.4461ZM73.9531 56.0366C73.9562 55.957 73.9336 55.8785 73.8885 55.8128C73.8399 55.7518 73.7714 55.7096 73.6949 55.6937C73.6495 55.6937 73.5563 55.6794 73.4129 55.6723C73.2695 55.6651 73.107 55.6604 72.9181 55.6604C72.778 55.6764 72.6466 55.7364 72.5429 55.8318C72.4667 55.9166 72.4265 56.0276 72.4306 56.1413C72.4302 56.1983 72.4433 56.2546 72.4688 56.3056C72.4983 56.3637 72.5418 56.4136 72.5955 56.4509C72.6684 56.4989 72.7494 56.5336 72.8345 56.5532C72.9501 56.5821 73.0691 56.5957 73.1882 56.5937C73.3866 56.6045 73.5837 56.5565 73.7547 56.4556C73.8208 56.4084 73.8738 56.3451 73.9085 56.2717C73.9432 56.1984 73.9586 56.1175 73.9531 56.0366ZM73.475 54.0199C73.4838 53.8599 73.4429 53.7012 73.3579 53.5651C73.3002 53.4853 73.2153 53.429 73.1191 53.4067C73.0229 53.3843 72.9218 53.3975 72.8345 53.4437C72.7787 53.4754 72.7325 53.5215 72.7007 53.577C72.6659 53.6374 72.6424 53.7036 72.6313 53.7723C72.6165 53.8508 72.6094 53.9305 72.6099 54.0104C72.6033 54.1659 72.645 54.3198 72.7294 54.4508C72.7613 54.5031 72.8062 54.5464 72.8598 54.5764C72.9134 54.6064 72.9738 54.6222 73.0352 54.6223C73.0995 54.6246 73.1633 54.6103 73.2203 54.5806C73.2773 54.551 73.3255 54.5071 73.3603 54.4532C73.4441 54.3244 73.4866 54.1733 73.4822 54.0199H73.475Z" fill="white"/>
<path d="M77.294 55.6962H76.1133V55.5343H76.2375C76.2756 55.5327 76.3134 55.5263 76.3499 55.5153C76.3917 55.5032 76.4275 55.476 76.4502 55.4391C76.4736 55.3951 76.4851 55.3459 76.4837 55.2962V54.0581C76.4931 53.9159 76.4497 53.7753 76.3618 53.6629C76.326 53.6192 76.2807 53.5841 76.2294 53.5602C76.1781 53.5363 76.1221 53.5242 76.0655 53.5248C75.9839 53.5228 75.9027 53.5365 75.8264 53.5653C75.7588 53.5896 75.6945 53.6224 75.6352 53.6629C75.5857 53.6958 75.542 53.7369 75.5062 53.7843C75.4808 53.8169 75.4577 53.8511 75.4368 53.8867V55.27C75.4336 55.3184 75.4453 55.3665 75.4703 55.4081C75.4948 55.4461 75.5308 55.4753 75.5731 55.4914C75.6079 55.5083 75.6449 55.5203 75.683 55.5272C75.7239 55.5363 75.7655 55.5419 75.8073 55.5438V55.7057H74.6123V55.5438H74.7294C74.7651 55.5418 74.8004 55.5354 74.8345 55.5248C74.8764 55.5127 74.9122 55.4856 74.9349 55.4486C74.9583 55.4046 74.9698 55.3554 74.9684 55.3057V53.8033C74.9693 53.7504 74.957 53.698 74.9326 53.651C74.91 53.6053 74.8762 53.566 74.8345 53.5367C74.7997 53.5164 74.7617 53.5019 74.7222 53.4938C74.6772 53.4845 74.6317 53.4781 74.5859 53.4748V53.3153L75.389 53.2605L75.4249 53.2962V53.6343H75.4368L75.5827 53.4938C75.6351 53.4454 75.691 53.4008 75.7499 53.3605C75.817 53.3187 75.8893 53.2858 75.965 53.2629C76.0566 53.2359 76.1517 53.2231 76.2471 53.2248C76.3443 53.2171 76.4419 53.2328 76.5317 53.2705C76.6215 53.3082 76.701 53.3668 76.7634 53.4414C76.8817 53.6088 76.9406 53.8108 76.9306 54.0153V55.2676C76.9287 55.3146 76.9386 55.3612 76.9594 55.4033C76.9816 55.4423 77.0173 55.4719 77.0597 55.4867C77.093 55.5007 77.1273 55.5119 77.1625 55.52C77.2009 55.5286 77.2402 55.5334 77.2796 55.5343L77.294 55.6962Z" fill="white"/>
<path d="M7.78466 53.3129H0.117188V53.9962H7.78466V53.3129Z" fill="white"/>
<path d="M87.1069 53.1509H79.4395V53.8342H87.1069V53.1509Z" fill="white"/>
<path d="M7.78466 54.4319H0.117188V55.1153H7.78466V54.4319Z" fill="white"/>
<path d="M87.1069 54.4319H79.4395V55.1152H87.1069V54.4319Z" fill="white"/>
</g>
<defs>
<clipPath id="clip0_779_3850">
<rect width="87" height="56" fill="white" transform="translate(0.117188 0.779541)"/>
</clipPath>
</defs>
</svg>
