<svg width="25" height="24" viewBox="0 0 25 24" fill="none" xmlns="http://www.w3.org/2000/svg">
<path d="M19.7491 20.5201L21.4516 18.8176C21.6808 18.5881 21.8577 18.3117 21.9701 18.0074C22.0825 17.7032 22.1278 17.3782 22.1029 17.0548C22.0779 16.7314 21.9834 16.4172 21.8257 16.1337C21.6679 15.8503 21.4508 15.6043 21.1891 15.4126L18.9391 13.7551C18.6554 13.5482 18.3272 13.4107 17.9808 13.3534C17.6344 13.2961 17.2793 13.3206 16.9441 13.4251L16.6591 13.5226C15.9916 13.7251 15.1591 13.9876 14.6041 14.1526C14.4303 14.2039 14.2438 14.1906 14.0791 14.1151C13.2565 13.7086 12.4983 13.1829 11.8291 12.5551C11.7594 12.4848 11.6765 12.429 11.5851 12.3909C11.4937 12.3529 11.3956 12.3333 11.2966 12.3333C11.1976 12.3333 11.0996 12.3529 11.0082 12.3909C10.9168 12.429 10.8338 12.4848 10.7641 12.5551C10.6244 12.6956 10.546 12.8857 10.546 13.0839C10.546 13.282 10.6244 13.4721 10.7641 13.6126C11.5428 14.3578 12.4305 14.9799 13.3966 15.4576C13.9024 15.7083 14.4855 15.7539 15.0241 15.5851C15.5641 15.4276 16.4191 15.1576 17.0866 14.9476L17.3791 14.8576C17.4915 14.8293 17.6089 14.8275 17.7221 14.8522C17.8353 14.8769 17.9413 14.9276 18.0316 15.0001L20.2816 16.6576C20.3686 16.7213 20.4408 16.803 20.4934 16.8972C20.5459 16.9914 20.5775 17.0957 20.5861 17.2032C20.5946 17.3107 20.5799 17.4188 20.5429 17.5201C20.5059 17.6213 20.4475 17.7134 20.3716 17.7901L19.8691 18.2926L17.5441 16.7926C17.4309 16.72 17.3002 16.6791 17.1658 16.6743C17.0313 16.6695 16.8981 16.701 16.78 16.7654C16.6619 16.8298 16.5633 16.9248 16.4945 17.0405C16.4258 17.1561 16.3893 17.2881 16.3891 17.4226C16.3885 17.5474 16.4191 17.6704 16.478 17.7804C16.5369 17.8904 16.6224 17.984 16.7266 18.0526L18.7816 19.3801L18.6691 19.5001C18.4796 19.6743 18.2574 19.8091 18.0153 19.8966C17.7733 19.9842 17.5162 20.0228 17.2591 20.0101C15.9391 20.0101 13.5091 19.1176 9.42915 14.9626C5.15415 10.6051 3.42915 7.14756 4.87665 5.71506L6.60165 3.96756C6.67782 3.89143 6.7695 3.8326 6.87045 3.79507C6.97139 3.75754 7.07924 3.74219 7.18665 3.75006C7.29471 3.7587 7.39961 3.79067 7.49413 3.84375C7.58865 3.89684 7.67053 3.96978 7.73415 4.05756L9.39165 6.30756C9.46024 6.40134 9.50611 6.50977 9.52563 6.62431C9.54515 6.73885 9.5378 6.85635 9.50415 6.96756L9.06165 8.38506L7.92915 6.78756C7.87231 6.70645 7.79996 6.63739 7.71629 6.58439C7.63262 6.53139 7.53928 6.49548 7.44166 6.47874C7.34404 6.46201 7.24406 6.46478 7.14752 6.48688C7.05097 6.50899 6.95976 6.55001 6.87915 6.60756C6.78118 6.67731 6.70143 6.76959 6.6466 6.87662C6.59178 6.98366 6.5635 7.10231 6.56415 7.22256C6.56451 7.37549 6.61162 7.52466 6.69915 7.65006L8.70165 10.5001C8.75791 10.5818 8.82982 10.6515 8.91322 10.7053C8.99662 10.759 9.08985 10.7956 9.1875 10.813C9.28516 10.8305 9.38531 10.8284 9.48214 10.8068C9.57898 10.7853 9.67058 10.7448 9.75165 10.6876C9.88281 10.5883 9.97768 10.4486 10.0217 10.2901L10.9366 7.44006C11.0411 7.10484 11.0657 6.74982 11.0084 6.4034C10.9511 6.05698 10.8135 5.72878 10.6066 5.44506L8.94915 3.19506C8.75747 2.93338 8.51147 2.71625 8.22803 2.55853C7.94458 2.40081 7.63038 2.30625 7.30697 2.28132C6.98356 2.25638 6.65858 2.30167 6.35431 2.41408C6.05004 2.52649 5.77367 2.70336 5.54415 2.93256L3.83415 4.63506C3.52776 4.9418 3.28621 5.30703 3.12386 5.70903C2.96152 6.11103 2.88169 6.54158 2.88915 6.97506C2.88915 8.86506 4.20165 11.7151 8.37915 15.9751C11.9416 19.6051 14.9341 21.4576 17.2741 21.4726C17.7298 21.4909 18.1844 21.4159 18.6101 21.2521C19.0357 21.0883 19.4233 20.8392 19.7491 20.5201Z" fill="white"/>
</svg>
